<svg version="1.1" xmlns="http://www.w3.org/2000/svg" xmlns:xlink="http://www.w3.org/1999/xlink" x="0px" y="0px"
	 viewBox="0 0 600 204" style="enable-background:new 0 0 600 204;" xml:space="preserve">
<g>
	<g id="Home" transform="translate(-122.000000, -3970.000000)">
		<g id="Group-6-Copy" transform="translate(125.000000, 3970.941406)">
			<g style="enable-background:new    ;">
				<path style="fill:#4A4A4A;" d="M223.6,42.4v-6h1.2v6H223.6z"/>
				<path style="fill:#4A4A4A;" d="M227.2,38.6v3.8H226v-6h0.9l3.1,3.9v-3.9h1.2v6h-0.9L227.2,38.6z"/>
				<path style="fill:#4A4A4A;" d="M232.4,42.4v-6h4v1h-2.8V39h2.4v0.9h-2.4v2.5H232.4z"/>
				<path style="fill:#4A4A4A;" d="M241.4,41.4v1h-4.1v-6h4.1v1h-2.9v1.4h2.5v0.9h-2.5v1.6H241.4z"/>
				<path style="fill:#4A4A4A;" d="M241.8,39.4c0-0.4,0.1-0.7,0.2-1.1c0.1-0.4,0.3-0.7,0.6-1s0.6-0.5,0.9-0.7s0.8-0.3,1.2-0.3
					c0.5,0,1,0.1,1.4,0.4c0.4,0.2,0.7,0.6,0.9,0.9l-0.9,0.6c-0.1-0.2-0.2-0.3-0.3-0.4s-0.2-0.2-0.4-0.3s-0.3-0.1-0.4-0.1
					c-0.1,0-0.3,0-0.4,0c-0.3,0-0.5,0.1-0.8,0.2c-0.2,0.1-0.4,0.3-0.5,0.5c-0.1,0.2-0.3,0.4-0.3,0.6c-0.1,0.2-0.1,0.5-0.1,0.7
					c0,0.3,0,0.5,0.1,0.8c0.1,0.2,0.2,0.5,0.4,0.6s0.3,0.3,0.6,0.4c0.2,0.1,0.5,0.2,0.7,0.2c0.1,0,0.3,0,0.4,0
					c0.1,0,0.3-0.1,0.4-0.2c0.1-0.1,0.3-0.2,0.4-0.3s0.2-0.3,0.3-0.4l0.9,0.5c-0.1,0.2-0.2,0.4-0.4,0.6s-0.4,0.3-0.6,0.4
					c-0.2,0.1-0.5,0.2-0.7,0.3c-0.3,0.1-0.5,0.1-0.7,0.1c-0.4,0-0.8-0.1-1.2-0.3c-0.4-0.2-0.7-0.4-0.9-0.7c-0.3-0.3-0.5-0.6-0.6-1
					C241.9,40.1,241.8,39.7,241.8,39.4z"/>
				<path style="fill:#4A4A4A;" d="M252.3,37.4h-1.9v5h-1.2v-5h-1.9v-1h5V37.4z"/>
				<path style="fill:#4A4A4A;" d="M253.1,42.4v-6h1.2v6H253.1z"/>
				<path style="fill:#4A4A4A;" d="M258,42.4c-0.4,0-0.8-0.1-1.2-0.3c-0.4-0.2-0.7-0.4-0.9-0.7c-0.3-0.3-0.5-0.6-0.6-1
					s-0.2-0.7-0.2-1.1c0-0.4,0.1-0.8,0.2-1.1s0.4-0.7,0.6-1s0.6-0.5,0.9-0.7c0.4-0.2,0.7-0.2,1.2-0.2c0.4,0,0.8,0.1,1.2,0.3
					c0.4,0.2,0.7,0.4,0.9,0.7c0.3,0.3,0.4,0.6,0.6,1c0.1,0.4,0.2,0.7,0.2,1.1c0,0.4-0.1,0.8-0.2,1.1s-0.3,0.7-0.6,1
					c-0.3,0.3-0.6,0.5-0.9,0.7C258.8,42.3,258.4,42.4,258,42.4z M256.3,39.4c0,0.3,0,0.5,0.1,0.7c0.1,0.2,0.2,0.5,0.3,0.6
					c0.1,0.2,0.3,0.3,0.5,0.4c0.2,0.1,0.5,0.2,0.7,0.2c0.3,0,0.5-0.1,0.7-0.2c0.2-0.1,0.4-0.3,0.5-0.5s0.3-0.4,0.3-0.6
					c0.1-0.2,0.1-0.5,0.1-0.7c0-0.3,0-0.5-0.1-0.7s-0.2-0.5-0.3-0.6s-0.3-0.3-0.5-0.4s-0.5-0.2-0.7-0.2c-0.3,0-0.5,0.1-0.7,0.2
					c-0.2,0.1-0.4,0.3-0.5,0.5c-0.1,0.2-0.3,0.4-0.3,0.6C256.3,38.9,256.3,39.1,256.3,39.4z"/>
				<path style="fill:#4A4A4A;" d="M264.3,41.4c0.3,0,0.5-0.1,0.7-0.2c0.2-0.1,0.3-0.3,0.5-0.4c0.1-0.2,0.2-0.4,0.2-0.6
					c0-0.2,0.1-0.5,0.1-0.7v-3h1.2v3c0,0.4,0,0.8-0.1,1.2c-0.1,0.4-0.3,0.7-0.5,0.9c-0.2,0.3-0.5,0.5-0.8,0.6
					c-0.3,0.2-0.7,0.2-1.2,0.2c-0.5,0-0.9-0.1-1.2-0.2s-0.6-0.4-0.8-0.7c-0.2-0.3-0.4-0.6-0.4-0.9c-0.1-0.4-0.1-0.7-0.1-1.1v-3h1.2
					v3c0,0.3,0,0.5,0.1,0.7s0.1,0.4,0.2,0.6c0.1,0.2,0.3,0.3,0.4,0.4S264.1,41.4,264.3,41.4z"/>
				<path style="fill:#4A4A4A;" d="M271.7,38c0,0-0.1-0.1-0.2-0.2c-0.1-0.1-0.2-0.1-0.4-0.2s-0.3-0.1-0.5-0.2s-0.3-0.1-0.5-0.1
					c-0.3,0-0.6,0.1-0.7,0.2c-0.2,0.1-0.2,0.3-0.2,0.5c0,0.1,0,0.2,0.1,0.3c0.1,0.1,0.1,0.2,0.3,0.2s0.3,0.1,0.4,0.2
					c0.2,0.1,0.4,0.1,0.6,0.2c0.3,0.1,0.6,0.2,0.8,0.3s0.4,0.2,0.6,0.3c0.2,0.1,0.3,0.3,0.4,0.5c0.1,0.2,0.1,0.4,0.1,0.7
					c0,0.3-0.1,0.6-0.2,0.8c-0.1,0.2-0.3,0.4-0.5,0.6c-0.2,0.1-0.4,0.2-0.7,0.3c-0.3,0.1-0.5,0.1-0.8,0.1c-0.4,0-0.9-0.1-1.3-0.2
					c-0.4-0.1-0.8-0.3-1.2-0.6l0.5-1c0.1,0,0.1,0.1,0.3,0.2s0.3,0.2,0.5,0.2c0.2,0.1,0.4,0.1,0.6,0.2c0.2,0.1,0.4,0.1,0.7,0.1
					c0.6,0,1-0.2,1-0.6c0-0.1,0-0.2-0.1-0.3c-0.1-0.1-0.2-0.2-0.3-0.2c-0.1-0.1-0.3-0.1-0.5-0.2s-0.4-0.1-0.6-0.2
					c-0.3-0.1-0.5-0.2-0.7-0.3c-0.2-0.1-0.4-0.2-0.5-0.3c-0.1-0.1-0.2-0.3-0.3-0.4c-0.1-0.2-0.1-0.4-0.1-0.6c0-0.3,0.1-0.6,0.2-0.8
					s0.3-0.4,0.5-0.6s0.4-0.3,0.7-0.4s0.5-0.1,0.8-0.1c0.4,0,0.8,0.1,1.2,0.2c0.4,0.1,0.7,0.3,0.9,0.5L271.7,38z"/>
				<path style="fill:#4A4A4A;" d="M275.3,42.4v-6h2.2c0.5,0,0.9,0.1,1.3,0.2c0.4,0.2,0.7,0.4,0.9,0.6c0.2,0.3,0.4,0.6,0.6,0.9
					s0.2,0.7,0.2,1.2c0,0.5-0.1,0.9-0.2,1.2c-0.1,0.4-0.3,0.7-0.6,0.9s-0.6,0.5-0.9,0.6c-0.4,0.1-0.8,0.2-1.2,0.2H275.3z
					 M279.2,39.4c0-0.3,0-0.5-0.1-0.8c-0.1-0.2-0.2-0.4-0.3-0.6c-0.2-0.2-0.3-0.3-0.6-0.4c-0.2-0.1-0.5-0.1-0.8-0.1h-1v3.9h1
					c0.3,0,0.5,0,0.8-0.2c0.2-0.1,0.4-0.2,0.6-0.4c0.1-0.2,0.3-0.4,0.3-0.6C279.2,39.9,279.2,39.7,279.2,39.4z"/>
				<path style="fill:#4A4A4A;" d="M281.3,42.4v-6h1.2v6H281.3z"/>
				<path style="fill:#4A4A4A;" d="M287.3,38c0,0-0.1-0.1-0.2-0.2c-0.1-0.1-0.2-0.1-0.4-0.2s-0.3-0.1-0.5-0.2s-0.3-0.1-0.5-0.1
					c-0.3,0-0.6,0.1-0.7,0.2c-0.2,0.1-0.2,0.3-0.2,0.5c0,0.1,0,0.2,0.1,0.3c0.1,0.1,0.1,0.2,0.3,0.2s0.3,0.1,0.4,0.2
					c0.2,0.1,0.4,0.1,0.6,0.2c0.3,0.1,0.6,0.2,0.8,0.3s0.4,0.2,0.6,0.3c0.2,0.1,0.3,0.3,0.4,0.5c0.1,0.2,0.1,0.4,0.1,0.7
					c0,0.3-0.1,0.6-0.2,0.8c-0.1,0.2-0.3,0.4-0.5,0.6c-0.2,0.1-0.4,0.2-0.7,0.3c-0.3,0.1-0.5,0.1-0.8,0.1c-0.4,0-0.9-0.1-1.3-0.2
					c-0.4-0.1-0.8-0.3-1.2-0.6l0.5-1c0.1,0,0.1,0.1,0.3,0.2s0.3,0.2,0.5,0.2c0.2,0.1,0.4,0.1,0.6,0.2c0.2,0.1,0.4,0.1,0.7,0.1
					c0.6,0,1-0.2,1-0.6c0-0.1,0-0.2-0.1-0.3c-0.1-0.1-0.2-0.2-0.3-0.2c-0.1-0.1-0.3-0.1-0.5-0.2s-0.4-0.1-0.6-0.2
					c-0.3-0.1-0.5-0.2-0.7-0.3c-0.2-0.1-0.4-0.2-0.5-0.3c-0.1-0.1-0.2-0.3-0.3-0.4c-0.1-0.2-0.1-0.4-0.1-0.6c0-0.3,0.1-0.6,0.2-0.8
					s0.3-0.4,0.5-0.6s0.4-0.3,0.7-0.4s0.5-0.1,0.8-0.1c0.4,0,0.8,0.1,1.2,0.2c0.4,0.1,0.7,0.3,0.9,0.5L287.3,38z"/>
				<path style="fill:#4A4A4A;" d="M293,41.4v1h-4.1v-6h4.1v1H290v1.4h2.5v0.9H290v1.6H293z"/>
				<path style="fill:#4A4A4A;" d="M295.6,36.4h1l2.3,6h-1.2l-0.6-1.5h-2.1l-0.5,1.5h-1.2L295.6,36.4z M297,40.1l-0.8-2.3l-0.9,2.3
					H297z"/>
				<path style="fill:#4A4A4A;" d="M303,38c0,0-0.1-0.1-0.2-0.2c-0.1-0.1-0.2-0.1-0.4-0.2s-0.3-0.1-0.5-0.2s-0.3-0.1-0.5-0.1
					c-0.3,0-0.6,0.1-0.7,0.2c-0.2,0.1-0.2,0.3-0.2,0.5c0,0.1,0,0.2,0.1,0.3c0.1,0.1,0.1,0.2,0.3,0.2s0.3,0.1,0.4,0.2
					c0.2,0.1,0.4,0.1,0.6,0.2c0.3,0.1,0.6,0.2,0.8,0.3s0.4,0.2,0.6,0.3c0.2,0.1,0.3,0.3,0.4,0.5c0.1,0.2,0.1,0.4,0.1,0.7
					c0,0.3-0.1,0.6-0.2,0.8c-0.1,0.2-0.3,0.4-0.5,0.6c-0.2,0.1-0.4,0.2-0.7,0.3c-0.3,0.1-0.5,0.1-0.8,0.1c-0.4,0-0.9-0.1-1.3-0.2
					c-0.4-0.1-0.8-0.3-1.2-0.6l0.5-1c0.1,0,0.1,0.1,0.3,0.2s0.3,0.2,0.5,0.2c0.2,0.1,0.4,0.1,0.6,0.2c0.2,0.1,0.4,0.1,0.7,0.1
					c0.6,0,1-0.2,1-0.6c0-0.1,0-0.2-0.1-0.3c-0.1-0.1-0.2-0.2-0.3-0.2c-0.1-0.1-0.3-0.1-0.5-0.2s-0.4-0.1-0.6-0.2
					c-0.3-0.1-0.5-0.2-0.7-0.3c-0.2-0.1-0.4-0.2-0.5-0.3c-0.1-0.1-0.2-0.3-0.3-0.4c-0.1-0.2-0.1-0.4-0.1-0.6c0-0.3,0.1-0.6,0.2-0.8
					s0.3-0.4,0.5-0.6s0.4-0.3,0.7-0.4s0.5-0.1,0.8-0.1c0.4,0,0.8,0.1,1.2,0.2c0.4,0.1,0.7,0.3,0.9,0.5L303,38z"/>
				<path style="fill:#4A4A4A;" d="M308.8,41.4v1h-4.1v-6h4.1v1h-2.9v1.4h2.5v0.9h-2.5v1.6H308.8z"/>
				<path style="fill:#4A4A4A;" d="M311.7,42.4v-6h1.2v6H311.7z"/>
				<path style="fill:#4A4A4A;" d="M315.3,38.6v3.8h-1.2v-6h0.9l3.1,3.9v-3.9h1.2v6h-0.9L315.3,38.6z"/>
				<path style="fill:#4A4A4A;" d="M320.5,42.4v-6h4v1h-2.8V39h2.4v0.9h-2.4v2.5H320.5z"/>
				<path style="fill:#4A4A4A;" d="M327.8,42.4c-0.4,0-0.8-0.1-1.2-0.3c-0.4-0.2-0.7-0.4-0.9-0.7c-0.3-0.3-0.5-0.6-0.6-1
					s-0.2-0.7-0.2-1.1c0-0.4,0.1-0.8,0.2-1.1s0.4-0.7,0.6-1s0.6-0.5,0.9-0.7c0.4-0.2,0.7-0.2,1.2-0.2c0.4,0,0.8,0.1,1.2,0.3
					c0.4,0.2,0.7,0.4,0.9,0.7c0.3,0.3,0.4,0.6,0.6,1c0.1,0.4,0.2,0.7,0.2,1.1c0,0.4-0.1,0.8-0.2,1.1s-0.3,0.7-0.6,1
					c-0.3,0.3-0.6,0.5-0.9,0.7C328.6,42.3,328.2,42.4,327.8,42.4z M326,39.4c0,0.3,0,0.5,0.1,0.7c0.1,0.2,0.2,0.5,0.3,0.6
					c0.1,0.2,0.3,0.3,0.5,0.4c0.2,0.1,0.5,0.2,0.7,0.2c0.3,0,0.5-0.1,0.7-0.2c0.2-0.1,0.4-0.3,0.5-0.5s0.3-0.4,0.3-0.6
					c0.1-0.2,0.1-0.5,0.1-0.7c0-0.3,0-0.5-0.1-0.7s-0.2-0.5-0.3-0.6s-0.3-0.3-0.5-0.4s-0.5-0.2-0.7-0.2c-0.3,0-0.5,0.1-0.7,0.2
					c-0.2,0.1-0.4,0.3-0.5,0.5c-0.1,0.2-0.3,0.4-0.3,0.6C326.1,38.9,326,39.1,326,39.4z"/>
				<path style="fill:#4A4A4A;" d="M335.7,41.7c-0.5,0.5-1,0.7-1.7,0.7c-0.4,0-0.8-0.1-1.1-0.2s-0.6-0.4-0.9-0.6s-0.5-0.6-0.6-1
					c-0.1-0.4-0.2-0.8-0.2-1.2c0-0.4,0.1-0.8,0.2-1.2c0.1-0.4,0.4-0.7,0.6-0.9c0.3-0.3,0.6-0.5,0.9-0.6c0.4-0.2,0.7-0.2,1.2-0.2
					c0.6,0,1,0.1,1.4,0.4s0.7,0.6,0.9,1l-0.9,0.6c-0.2-0.3-0.4-0.5-0.6-0.7c-0.3-0.2-0.6-0.2-0.9-0.2c-0.3,0-0.5,0.1-0.7,0.2
					c-0.2,0.1-0.4,0.3-0.5,0.4c-0.1,0.2-0.3,0.4-0.3,0.6s-0.1,0.5-0.1,0.8c0,0.3,0,0.5,0.1,0.8c0.1,0.2,0.2,0.5,0.4,0.6
					c0.2,0.2,0.3,0.3,0.6,0.4s0.4,0.2,0.7,0.2c0.6,0,1.1-0.3,1.6-0.8v-0.4h-1.2v-0.8h2.2v3.1h-1V41.7z"/>
				<path style="fill:#4A4A4A;" d="M337.7,42.4v-6h2.6c0.3,0,0.5,0.1,0.8,0.2s0.4,0.3,0.6,0.5s0.3,0.4,0.4,0.6
					c0.1,0.2,0.1,0.5,0.1,0.7c0,0.4-0.1,0.7-0.3,1.1s-0.5,0.5-0.8,0.7l1.4,2.2h-1.3l-1.2-2h-1.1v2H337.7z M338.8,39.4h1.5
					c0.1,0,0.2,0,0.3-0.1c0.1,0,0.2-0.1,0.2-0.2c0.1-0.1,0.1-0.2,0.2-0.3c0-0.1,0.1-0.2,0.1-0.4c0-0.1,0-0.3-0.1-0.4
					c0-0.1-0.1-0.2-0.2-0.3c-0.1-0.1-0.2-0.2-0.3-0.2c-0.1,0-0.2-0.1-0.3-0.1h-1.4V39.4z"/>
				<path style="fill:#4A4A4A;" d="M344.9,36.4h1l2.3,6H347l-0.6-1.5h-2.1l-0.5,1.5h-1.2L344.9,36.4z M346.2,40.1l-0.8-2.3l-0.9,2.3
					H346.2z"/>
				<path style="fill:#4A4A4A;" d="M348.8,42.4v-6h2.5c0.3,0,0.5,0.1,0.8,0.2s0.4,0.3,0.6,0.5c0.2,0.2,0.3,0.4,0.4,0.6
					c0.1,0.2,0.1,0.5,0.1,0.7c0,0.3,0,0.5-0.1,0.7c-0.1,0.2-0.2,0.5-0.4,0.6c-0.2,0.2-0.4,0.3-0.6,0.4c-0.2,0.1-0.5,0.2-0.8,0.2H350
					v2H348.8z M350,39.4h1.3c0.2,0,0.4-0.1,0.5-0.3c0.1-0.2,0.2-0.4,0.2-0.7c0-0.2,0-0.3-0.1-0.4c0-0.1-0.1-0.2-0.2-0.3
					c-0.1-0.1-0.2-0.1-0.3-0.2c-0.1,0-0.2-0.1-0.3-0.1H350V39.4z"/>
				<path style="fill:#4A4A4A;" d="M359.1,36.4v6h-1.2v-2.5h-2.7v2.5H354v-6h1.2v2.4h2.7v-2.4H359.1z"/>
				<path style="fill:#4A4A4A;" d="M360.3,42.4v-6h1.2v6H360.3z"/>
				<path style="fill:#4A4A4A;" d="M362.4,39.4c0-0.4,0.1-0.7,0.2-1.1c0.1-0.4,0.3-0.7,0.6-1s0.6-0.5,0.9-0.7s0.8-0.3,1.2-0.3
					c0.5,0,1,0.1,1.4,0.4c0.4,0.2,0.7,0.6,0.9,0.9l-0.9,0.6c-0.1-0.2-0.2-0.3-0.3-0.4s-0.2-0.2-0.4-0.3s-0.3-0.1-0.4-0.1
					c-0.1,0-0.3,0-0.4,0c-0.3,0-0.5,0.1-0.8,0.2c-0.2,0.1-0.4,0.3-0.5,0.5c-0.1,0.2-0.3,0.4-0.3,0.6c-0.1,0.2-0.1,0.5-0.1,0.7
					c0,0.3,0,0.5,0.1,0.8c0.1,0.2,0.2,0.5,0.4,0.6s0.3,0.3,0.6,0.4c0.2,0.1,0.5,0.2,0.7,0.2c0.1,0,0.3,0,0.4,0
					c0.1,0,0.3-0.1,0.4-0.2c0.1-0.1,0.3-0.2,0.4-0.3s0.2-0.3,0.3-0.4l0.9,0.5c-0.1,0.2-0.2,0.4-0.4,0.6s-0.4,0.3-0.6,0.4
					c-0.2,0.1-0.5,0.2-0.7,0.3c-0.3,0.1-0.5,0.1-0.7,0.1c-0.4,0-0.8-0.1-1.2-0.3c-0.4-0.2-0.7-0.4-0.9-0.7c-0.3-0.3-0.5-0.6-0.6-1
					C362.4,40.1,362.4,39.7,362.4,39.4z"/>
			</g>
			<polygon id="Rectangle-4-Copy" style="fill-rule:evenodd;clip-rule:evenodd;fill:#FFFFFF;" points="17.2,53 572.2,53
				572.2,190.2 17.2,190.2 			"/>
			<polygon id="Rectangle-7" style="fill-rule:evenodd;clip-rule:evenodd;fill:#042A4A;" points="216.4,53 437.9,53 445.8,66.1
				437.9,80.6 216.4,80.6 223.7,66.7 			"/>
			<polygon id="Rectangle-7-Copy" style="fill-rule:evenodd;clip-rule:evenodd;fill:#042A4A;fill-opacity:0.9;" points="216.4,80.4
				425.6,80.4 433.5,93.4 425.6,107.9 216.4,107.9 223.7,94 			"/>
			<polygon id="Rectangle-7-Copy-3" style="fill-rule:evenodd;clip-rule:evenodd;fill:#042A4A;fill-opacity:0.8;" points="
				216.4,107.7 347.6,107.7 355.5,120.7 347.6,135.2 216.4,135.2 223.7,121.3 			"/>
			<polygon id="Rectangle-7-Copy-2" style="fill-rule:evenodd;clip-rule:evenodd;fill:#042A4A;fill-opacity:0.7;" points="
				216.4,135 307.1,135 315,148 307.1,162.5 216.4,162.5 223.7,148.6 			"/>
			<polygon id="Rectangle-7-Copy-4" style="fill-rule:evenodd;clip-rule:evenodd;fill:#042A4A;fill-opacity:0.5;" points="
				216.4,162.3 264.4,162.3 272.3,175.3 264.4,189.8 216.4,189.8 223.7,175.9 			"/>
			<polygon id="Rectangle-4-Copy-2" style="fill-rule:evenodd;clip-rule:evenodd;fill:#042A4A;" points="17.2,53 99.5,53
				99.5,190.2 17.2,190.2 			"/>
			<polygon id="Rectangle-4-Copy-3" style="fill-rule:evenodd;clip-rule:evenodd;fill:#FAFAFA;" points="489.3,53 571.6,53
				571.6,189.7 489.3,189.7 			"/>
			<g id="Rectangle-4">
				<g>
					<polygon id="path-1" style="fill-rule:evenodd;clip-rule:evenodd;" points="17.2,10.8 572.2,10.8 572.2,53.7 17.2,53.7
						"/>
				</g>
				<g>
					<polygon style="fill-rule:evenodd;clip-rule:evenodd;fill:#03C5C5;" points="17.2,10.8 572.2,10.8 572.2,53.7 17.2,53.7
						"/>
				</g>
			</g>
			<path id="Line" style="fill:none;stroke:#D9D9D9;stroke-linecap:square;" d="M17.4,80.3h552.7"/>
			<path id="Line-Copy" style="fill:none;stroke:#D9D9D9;stroke-linecap:square;" d="M17.4,107.8h552.7"/>
			<path id="Line-Copy-3" style="fill:none;stroke:#D9D9D9;stroke-linecap:square;" d="M17.4,135.3h552.7"/>
			<path id="Line-Copy-2" style="fill:none;stroke:#D9D9D9;stroke-linecap:square;" d="M17.4,162.4h552.7"/>
			<g style="enable-background:new    ;">
				<path style="fill:#FFFFFF;" d="M30.7,29.8h2.2c1.1,0,1.9,0.7,1.9,1.9c0,1.1-0.8,1.9-1.9,1.9h-1.3v2.2h-0.8V29.8z M32.7,32.9
					c0.7,0,1.2-0.4,1.2-1.2c0-0.7-0.4-1.1-1.1-1.1h-1.2v2.3H32.7z"/>
				<path style="fill:#FFFFFF;" d="M37.8,33.1H38V33c0-0.7-0.4-0.9-0.9-0.9c-0.7,0-1.2,0.4-1.2,0.4l-0.3-0.6c0,0,0.6-0.5,1.6-0.5
					c1.1,0,1.7,0.6,1.7,1.7v2.7h-0.8v-0.4c0-0.2,0-0.3,0-0.3h0c0,0-0.3,0.8-1.4,0.8c-0.7,0-1.4-0.4-1.4-1.3
					C35.2,33.2,37.1,33.1,37.8,33.1z M36.9,35.2c0.7,0,1.1-0.7,1.1-1.4v-0.1h-0.2c-0.6,0-1.7,0-1.7,0.8
					C36.1,34.9,36.3,35.2,36.9,35.2z"/>
				<path style="fill:#FFFFFF;" d="M40.2,32.2h-0.6v-0.7h0.6v-1.2H41v1.2h1v0.7h-1v1.9c0,0.8,0.6,1,0.9,1c0.1,0,0.2,0,0.2,0v0.7
					c0,0-0.1,0-0.3,0c-0.5,0-1.6-0.2-1.6-1.6V32.2z"/>
				<path style="fill:#FFFFFF;" d="M43,29.8h0.8V32c0,0.2,0,0.4,0,0.4h0c0.2-0.4,0.7-1,1.6-1c1,0,1.5,0.5,1.5,1.6v2.7H46v-2.5
					c0-0.6-0.1-1.1-0.8-1.1c-0.6,0-1.2,0.4-1.3,1.1c-0.1,0.2-0.1,0.4-0.1,0.6v2H43V29.8z"/>
				<path style="fill:#FFFFFF;" d="M50.1,31.4c1.3,0,2.3,0.9,2.3,2.2c0,1.3-1,2.2-2.3,2.2s-2.3-0.9-2.3-2.2
					C47.8,32.4,48.8,31.4,50.1,31.4z M50.1,35.2c0.8,0,1.5-0.6,1.5-1.5c0-0.9-0.7-1.5-1.5-1.5c-0.8,0-1.5,0.6-1.5,1.5
					C48.6,34.5,49.3,35.2,50.1,35.2z"/>
				<path style="fill:#FFFFFF;" d="M54.9,36.8c0.7,0,1.3-0.3,1.3-1.2v-0.3c0-0.1,0-0.3,0-0.3h0c-0.3,0.4-0.6,0.7-1.3,0.7
					c-1.2,0-1.9-1-1.9-2.2c0-1.2,0.7-2.1,1.9-2.1c1,0,1.3,0.6,1.3,0.6h0c0,0,0-0.1,0-0.1v-0.4H57v4.1c0,1.4-1.1,1.9-2.1,1.9
					c-0.5,0-1-0.1-1.5-0.4l0.3-0.6C53.7,36.5,54.2,36.8,54.9,36.8z M56.2,33.6c0-1.1-0.5-1.4-1.2-1.4c-0.7,0-1.2,0.5-1.2,1.4
					c0,0.9,0.5,1.5,1.2,1.5C55.7,35,56.2,34.7,56.2,33.6z"/>
				<path style="fill:#FFFFFF;" d="M60.1,31.4c1.2,0,1.8,0.9,1.8,2c0,0.1,0,0.4,0,0.4h-3.1c0,0.9,0.7,1.4,1.5,1.4
					c0.7,0,1.3-0.5,1.3-0.5l0.3,0.6c0,0-0.6,0.6-1.6,0.6c-1.3,0-2.3-1-2.3-2.2C58,32.3,58.9,31.4,60.1,31.4z M61.2,33.1
					c0-0.7-0.5-1.1-1-1.1c-0.6,0-1.1,0.4-1.2,1.1H61.2z"/>
				<path style="fill:#FFFFFF;" d="M63,31.5h0.8v0.6c0,0.2,0,0.3,0,0.3h0c0.2-0.4,0.7-1,1.6-1c1,0,1.5,0.5,1.5,1.6v2.7H66v-2.5
					c0-0.6-0.1-1.1-0.8-1.1c-0.6,0-1.2,0.4-1.3,1c-0.1,0.2-0.1,0.4-0.1,0.6v2H63V31.5z"/>
			</g>
			<g style="enable-background:new    ;">
				<path style="fill:#FFFFFF;" d="M30.7,64.2H34v0.5h-2.7v2.2h2.2v0.5h-2.2v2.2h2.9v0.5h-3.5V64.2z"/>
				<path style="fill:#FFFFFF;" d="M35.4,69.5H36v0.7h-0.7V69.5z"/>
				<path style="fill:#FFFFFF;" d="M41.6,65.8c1,0,1.5,0.6,1.5,0.6l-0.3,0.4c0,0-0.5-0.5-1.2-0.5C40.7,66.3,40,67,40,68
					c0,1,0.7,1.7,1.7,1.7c0.9,0,1.4-0.6,1.4-0.6l0.3,0.4c0,0-0.6,0.7-1.6,0.7c-1.3,0-2.2-0.9-2.2-2.2C39.4,66.7,40.4,65.8,41.6,65.8
					z"/>
				<path style="fill:#FFFFFF;" d="M46.2,65.8c1.2,0,2.2,0.9,2.2,2.2c0,1.3-1,2.2-2.2,2.2S44,69.3,44,68C44,66.8,45,65.8,46.2,65.8z
					 M46.2,69.7c0.9,0,1.6-0.7,1.6-1.7c0-1-0.7-1.7-1.6-1.7s-1.6,0.7-1.6,1.7C44.6,69,45.3,69.7,46.2,69.7z"/>
				<path style="fill:#FFFFFF;" d="M49.5,64.2H50V69c0,0.6,0.3,0.6,0.5,0.6c0.1,0,0.1,0,0.1,0v0.5c0,0-0.1,0-0.2,0c-0.4,0-1-0.1-1-1
					V64.2z"/>
				<path style="fill:#FFFFFF;" d="M51.6,64.2h0.6V65h-0.6V64.2z M51.6,65.9h0.6v4.2h-0.6V65.9z"/>
			</g>
			<g style="enable-background:new    ;">
				<path style="fill:#FFFFFF;" d="M33.3,91.6c1.4,0,2.1,0.8,2.1,0.8l-0.3,0.4c0,0-0.7-0.7-1.8-0.7c-1.4,0-2.4,1.1-2.4,2.5
					c0,1.4,1,2.6,2.4,2.6c1.2,0,1.9-0.8,1.9-0.8l0.3,0.4c0,0-0.8,0.9-2.3,0.9c-1.7,0-3-1.4-3-3.1C30.3,92.9,31.6,91.6,33.3,91.6z"/>
				<path style="fill:#FFFFFF;" d="M36.6,96.9h0.7v0.7h-0.7V96.9z"/>
				<path style="fill:#FFFFFF;" d="M42.6,93.2c1,0,1.4,0.8,1.4,0.8h0c0,0,0-0.1,0-0.3v-2.1h0.6v5.9H44v-0.4c0-0.2,0-0.3,0-0.3h0
					c0,0-0.3,0.8-1.5,0.8c-1.1,0-1.8-0.9-1.8-2.2C40.7,94.1,41.5,93.2,42.6,93.2z M42.6,97.2c0.7,0,1.4-0.5,1.4-1.7
					c0-0.9-0.4-1.7-1.3-1.7c-0.7,0-1.4,0.6-1.4,1.7C41.3,96.5,41.8,97.2,42.6,97.2z"/>
				<path style="fill:#FFFFFF;" d="M45.9,91.7h0.6v0.7h-0.6V91.7z M45.9,93.3h0.6v4.2h-0.6V93.3z"/>
				<path style="fill:#FFFFFF;" d="M50.7,93.8h-2.1v3.8H48v-3.8h-0.5v-0.5H48v-0.2c0-1.4,1-1.6,1.5-1.6c0.2,0,0.3,0,0.3,0v0.5
					c0,0-0.1,0-0.2,0c-0.3,0-1,0.1-1,1.1v0.2h2.1v-0.2c0-1.4,1-1.6,1.5-1.6c0.2,0,0.3,0,0.3,0v0.5c0,0-0.1,0-0.2,0
					c-0.3,0-1,0.1-1,1.1v0.2h2.5v4.2h-0.6v-3.8h-1.9v3.8h-0.6V93.8z M53.2,91.7h0.6v0.7h-0.6V91.7z"/>
				<path style="fill:#FFFFFF;" d="M57.1,93.2c1,0,1.5,0.6,1.5,0.6l-0.3,0.4c0,0-0.5-0.5-1.2-0.5c-0.9,0-1.6,0.7-1.6,1.7
					c0,1,0.7,1.7,1.7,1.7c0.9,0,1.4-0.6,1.4-0.6l0.3,0.4c0,0-0.6,0.7-1.6,0.7c-1.3,0-2.2-0.9-2.2-2.2C54.9,94.2,55.9,93.2,57.1,93.2
					z"/>
				<path style="fill:#FFFFFF;" d="M59.8,91.7h0.6v0.7h-0.6V91.7z M59.8,93.3h0.6v4.2h-0.6V93.3z"/>
				<path style="fill:#FFFFFF;" d="M61.7,91.7h0.6v4.8c0,0.6,0.3,0.6,0.5,0.6c0.1,0,0.1,0,0.1,0v0.5c0,0-0.1,0-0.2,0
					c-0.4,0-1-0.1-1-1V91.7z"/>
				<path style="fill:#FFFFFF;" d="M65.6,93.2c1.2,0,1.8,0.9,1.8,2c0,0.1,0,0.3,0,0.3h-3.2c0,1.1,0.8,1.7,1.6,1.7
					c0.8,0,1.3-0.5,1.3-0.5l0.3,0.4c0,0-0.6,0.6-1.6,0.6c-1.3,0-2.2-0.9-2.2-2.2C63.5,94.1,64.5,93.2,65.6,93.2z M66.8,95
					c0-0.9-0.6-1.3-1.2-1.3c-0.7,0-1.3,0.4-1.5,1.3H66.8z"/>
			</g>
			<g style="enable-background:new    ;">
				<path style="fill:#FFFFFF;" d="M30.7,118h2c1.1,0,1.8,0.7,1.8,1.8c0,1.1-0.8,1.8-1.8,1.8h-1.5v2.3h-0.6V118z M32.7,121.1
					c0.8,0,1.3-0.5,1.3-1.3c0-0.8-0.5-1.3-1.3-1.3h-1.4v2.5H32.7z"/>
				<path style="fill:#FFFFFF;" d="M34.7,123.2h0.7v0.7h-0.7V123.2z"/>
				<path style="fill:#FFFFFF;" d="M41.3,121.3h0.2v-0.1c0-0.8-0.4-1.1-1.1-1.1c-0.7,0-1.2,0.4-1.2,0.4L39,120c0,0,0.6-0.5,1.5-0.5
					c1,0,1.6,0.6,1.6,1.6v2.7h-0.5v-0.5c0-0.2,0-0.4,0-0.4h0c0,0-0.4,0.9-1.4,0.9c-0.7,0-1.4-0.4-1.4-1.3
					C38.7,121.3,40.6,121.3,41.3,121.3z M40.2,123.5c0.8,0,1.3-0.8,1.3-1.6v-0.2h-0.2c-0.7,0-2,0-2,1
					C39.3,123.1,39.6,123.5,40.2,123.5z"/>
				<path style="fill:#FFFFFF;" d="M45.2,119.6c1.2,0,1.8,0.9,1.8,2c0,0.1,0,0.3,0,0.3h-3.2c0,1.1,0.8,1.7,1.6,1.7
					c0.8,0,1.3-0.5,1.3-0.5l0.3,0.4c0,0-0.6,0.6-1.6,0.6c-1.3,0-2.2-0.9-2.2-2.2C43.1,120.4,44.1,119.6,45.2,119.6z M46.4,121.3
					c0-0.9-0.6-1.3-1.2-1.3c-0.7,0-1.3,0.4-1.5,1.3H46.4z"/>
				<path style="fill:#FFFFFF;" d="M48.1,119.7h0.6v0.7c0,0.2,0,0.3,0,0.3h0c0.2-0.6,0.7-1.1,1.3-1.1c0.1,0,0.2,0,0.2,0v0.6
					c0,0-0.1,0-0.2,0c-0.6,0-1,0.5-1.2,1.1c-0.1,0.3-0.1,0.6-0.1,0.8v1.8h-0.6V119.7z"/>
				<path style="fill:#FFFFFF;" d="M51,119.7h0.6v2.5c0,0.7,0.1,1.3,0.9,1.3c1,0,1.6-0.8,1.6-1.8v-2h0.6v4.2h-0.6v-0.6
					c0-0.2,0-0.3,0-0.3h0c-0.2,0.4-0.7,1.1-1.7,1.1c-1,0-1.4-0.5-1.4-1.6V119.7z"/>
				<path style="fill:#FFFFFF;" d="M57.5,125.1c0.8,0,1.5-0.4,1.5-1.3v-0.4c0-0.2,0-0.3,0-0.3h0c-0.3,0.5-0.7,0.7-1.3,0.7
					c-1.1,0-1.9-0.9-1.9-2.2s0.7-2.1,1.8-2.1c1.1,0,1.4,0.7,1.4,0.7h0c0,0,0,0,0-0.1v-0.5h0.6v4.1c0,1.3-1,1.9-2,1.9
					c-0.5,0-1-0.1-1.4-0.3l0.2-0.5C56.3,124.9,56.8,125.1,57.5,125.1z M59,121.7c0-1.2-0.6-1.6-1.3-1.6c-0.8,0-1.3,0.6-1.3,1.6
					s0.5,1.7,1.4,1.7C58.4,123.4,59,122.9,59,121.7z"/>
				<path style="fill:#FFFFFF;" d="M60.9,118h0.6v0.7h-0.6V118z M60.9,119.7h0.6v4.2h-0.6V119.7z"/>
				<path style="fill:#FFFFFF;" d="M62.9,119.7h0.6v0.6c0,0.2,0,0.3,0,0.3h0c0.2-0.4,0.7-1.1,1.7-1.1c1,0,1.4,0.6,1.4,1.6v2.7h-0.6
					v-2.5c0-0.7-0.1-1.3-0.9-1.3c-0.7,0-1.3,0.5-1.5,1.2c-0.1,0.2-0.1,0.4-0.1,0.6v2h-0.6V119.7z"/>
				<path style="fill:#FFFFFF;" d="M69.8,119.6c1.2,0,2.2,0.9,2.2,2.2c0,1.3-1,2.2-2.2,2.2c-1.2,0-2.2-1-2.2-2.2
					C67.5,120.5,68.5,119.6,69.8,119.6z M69.8,123.5c0.9,0,1.6-0.7,1.6-1.7c0-1-0.7-1.7-1.6-1.7c-0.9,0-1.6,0.7-1.6,1.7
					C68.1,122.7,68.9,123.5,69.8,123.5z"/>
				<path style="fill:#FFFFFF;" d="M73,123c0,0,0.5,0.5,1.3,0.5c0.5,0,0.8-0.2,0.8-0.7c0-0.9-2.3-0.7-2.3-2.1c0-0.8,0.7-1.2,1.4-1.2
					c0.9,0,1.3,0.5,1.3,0.5l-0.3,0.4c0,0-0.4-0.4-1.1-0.4c-0.4,0-0.8,0.2-0.8,0.7c0,0.9,2.3,0.7,2.3,2.1c0,0.7-0.6,1.2-1.4,1.2
					c-1,0-1.6-0.6-1.6-0.6L73,123z"/>
				<path style="fill:#FFFFFF;" d="M79,121.3h0.2v-0.1c0-0.8-0.4-1.1-1.1-1.1c-0.7,0-1.2,0.4-1.2,0.4l-0.3-0.4c0,0,0.6-0.5,1.5-0.5
					c1,0,1.6,0.6,1.6,1.6v2.7h-0.5v-0.5c0-0.2,0-0.4,0-0.4h0c0,0-0.4,0.9-1.4,0.9c-0.7,0-1.4-0.4-1.4-1.3
					C76.4,121.3,78.3,121.3,79,121.3z M78,123.5c0.8,0,1.3-0.8,1.3-1.6v-0.2H79c-0.7,0-2,0-2,1C77,123.1,77.3,123.5,78,123.5z"/>
			</g>
			<g style="enable-background:new    ;">
				<path style="fill:#FFFFFF;" d="M30.6,149.8c0,0,0.6,0.6,1.5,0.6c0.6,0,1.2-0.4,1.2-1c0-1.5-3-1.1-3-2.9c0-0.8,0.7-1.6,1.8-1.6
					c1,0,1.6,0.6,1.6,0.6l-0.3,0.5c0,0-0.5-0.5-1.3-0.5c-0.8,0-1.2,0.5-1.2,1c0,1.4,3,1,3,2.9c0,0.9-0.7,1.6-1.8,1.6
					c-1.2,0-1.9-0.8-1.9-0.8L30.6,149.8z"/>
				<path style="fill:#FFFFFF;" d="M35,150.2h0.7v0.7H35V150.2z"/>
				<path style="fill:#FFFFFF;" d="M41.6,148.3h0.2v-0.1c0-0.8-0.4-1.1-1.1-1.1c-0.7,0-1.2,0.4-1.2,0.4l-0.3-0.4
					c0,0,0.6-0.5,1.5-0.5c1,0,1.6,0.6,1.6,1.6v2.7h-0.5v-0.5c0-0.2,0-0.4,0-0.4h0c0,0-0.4,0.9-1.4,0.9c-0.7,0-1.4-0.4-1.4-1.3
					C39,148.3,40.8,148.3,41.6,148.3z M40.5,150.5c0.8,0,1.3-0.8,1.3-1.6v-0.2h-0.2c-0.7,0-2,0-2,1
					C39.6,150.1,39.9,150.5,40.5,150.5z"/>
				<path style="fill:#FFFFFF;" d="M43.6,146.7h0.6v2.5c0,0.7,0.1,1.3,0.9,1.3c1,0,1.6-0.8,1.6-1.8v-2h0.6v4.2h-0.6v-0.6
					c0-0.2,0-0.3,0-0.3h0c-0.2,0.4-0.7,1.1-1.7,1.1c-1,0-1.4-0.5-1.4-1.6V146.7z"/>
				<path style="fill:#FFFFFF;" d="M48.6,146.7h0.6v0.7c0,0.2,0,0.3,0,0.3h0c0.2-0.6,0.7-1.1,1.3-1.1c0.1,0,0.2,0,0.2,0v0.6
					c0,0-0.1,0-0.2,0c-0.6,0-1,0.5-1.2,1.1c-0.1,0.3-0.1,0.6-0.1,0.8v1.8h-0.6V146.7z"/>
				<path style="fill:#FFFFFF;" d="M53.4,146.6c1.2,0,1.8,0.9,1.8,2c0,0.1,0,0.3,0,0.3h-3.2c0,1.1,0.8,1.7,1.6,1.7
					c0.8,0,1.3-0.5,1.3-0.5l0.3,0.4c0,0-0.6,0.6-1.6,0.6c-1.3,0-2.2-0.9-2.2-2.2C51.3,147.4,52.2,146.6,53.4,146.6z M54.6,148.4
					c0-0.9-0.6-1.3-1.2-1.3c-0.7,0-1.3,0.4-1.5,1.3H54.6z"/>
				<path style="fill:#FFFFFF;" d="M56.2,146.7h0.6v2.5c0,0.7,0.1,1.3,0.9,1.3c1,0,1.6-0.8,1.6-1.8v-2h0.6v4.2h-0.6v-0.6
					c0-0.2,0-0.3,0-0.3h0c-0.2,0.4-0.7,1.1-1.7,1.1c-1,0-1.4-0.5-1.4-1.6V146.7z"/>
				<path style="fill:#FFFFFF;" d="M61.1,150c0,0,0.5,0.5,1.3,0.5c0.5,0,0.8-0.2,0.8-0.7c0-0.9-2.3-0.7-2.3-2.1
					c0-0.8,0.7-1.2,1.4-1.2c0.9,0,1.3,0.5,1.3,0.5l-0.3,0.4c0,0-0.4-0.4-1.1-0.4c-0.4,0-0.8,0.2-0.8,0.7c0,0.9,2.3,0.7,2.3,2.1
					c0,0.7-0.6,1.2-1.4,1.2c-1,0-1.6-0.6-1.6-0.6L61.1,150z"/>
			</g>
			<g style="enable-background:new    ;">
				<path style="fill:#FFFFFF;" d="M33.3,172.3c1.7,0,3,1.3,3,3c0,1.7-1.3,3.1-3,3.1c-1.7,0-3-1.4-3-3.1
					C30.3,173.6,31.6,172.3,33.3,172.3z M33.3,177.9c1.3,0,2.4-1.1,2.4-2.6c0-1.4-1.1-2.5-2.4-2.5c-1.3,0-2.4,1.1-2.4,2.5
					C30.9,176.8,32,177.9,33.3,177.9z"/>
				<path style="fill:#FFFFFF;" d="M37.6,174.6h-0.6v-0.5h0.6v-1.2h0.6v1.2h1.1v0.5h-1.1v2.1c0,1,0.6,1.1,1,1.1c0.1,0,0.2,0,0.2,0
					v0.5c0,0-0.1,0-0.2,0c-0.5,0-1.5-0.2-1.5-1.6V174.6z"/>
				<path style="fill:#FFFFFF;" d="M40.3,172.4h0.6v2.3c0,0.2,0,0.3,0,0.3h0c0.2-0.4,0.7-1.1,1.7-1.1c1,0,1.4,0.6,1.4,1.6v2.7h-0.6
					v-2.5c0-0.7-0.1-1.3-0.9-1.3c-0.7,0-1.3,0.5-1.5,1.2c-0.1,0.2-0.1,0.4-0.1,0.6v2h-0.6V172.4z"/>
				<path style="fill:#FFFFFF;" d="M47.1,174c1.2,0,1.8,0.9,1.8,2c0,0.1,0,0.3,0,0.3h-3.2c0,1.1,0.8,1.7,1.6,1.7
					c0.8,0,1.3-0.5,1.3-0.5l0.3,0.4c0,0-0.6,0.6-1.6,0.6c-1.3,0-2.2-0.9-2.2-2.2C45,174.8,45.9,174,47.1,174z M48.2,175.8
					c0-0.9-0.6-1.3-1.2-1.3c-0.7,0-1.3,0.4-1.5,1.3H48.2z"/>
				<path style="fill:#FFFFFF;" d="M49.9,174.1h0.6v0.7c0,0.2,0,0.3,0,0.3h0c0.2-0.6,0.7-1.1,1.3-1.1c0.1,0,0.2,0,0.2,0v0.6
					c0,0-0.1,0-0.2,0c-0.6,0-1,0.5-1.2,1.1c-0.1,0.3-0.1,0.6-0.1,0.8v1.8h-0.6V174.1z"/>
				<path style="fill:#FFFFFF;" d="M55.3,172.4h3.3v0.5h-2.7v2.2h2.2v0.5h-2.2v2.2h2.9v0.5h-3.5V172.4z"/>
				<path style="fill:#FFFFFF;" d="M60,177.2c0,0,0.6,0.6,1.5,0.6c0.6,0,1.2-0.4,1.2-1c0-1.5-3-1.1-3-2.9c0-0.8,0.7-1.6,1.8-1.6
					c1,0,1.6,0.6,1.6,0.6l-0.3,0.5c0,0-0.5-0.5-1.3-0.5c-0.8,0-1.2,0.5-1.2,1c0,1.4,3,1,3,2.9c0,0.9-0.7,1.6-1.8,1.6
					c-1.2,0-1.9-0.8-1.9-0.8L60,177.2z"/>
				<path style="fill:#FFFFFF;" d="M64.7,172.4h0.6v2.6h1l1.6-2.6h0.7l-1.8,2.8v0l1.9,3.1h-0.7l-1.7-2.8h-1v2.8h-0.6V172.4z"/>
				<path style="fill:#FFFFFF;" d="M72.6,176.4h-2.4l-0.7,1.9H69l2.2-5.9h0.6l2.2,5.9h-0.6L72.6,176.4z M71.4,173
					c0,0-0.1,0.5-0.2,0.8l-0.8,2.1h2l-0.8-2.1C71.6,173.5,71.5,173,71.4,173L71.4,173z"/>
				<path style="fill:#FFFFFF;" d="M74.9,172.4h2c1.1,0,1.8,0.7,1.8,1.8c0,1.1-0.8,1.8-1.8,1.8h-1.5v2.3h-0.6V172.4z M76.9,175.5
					c0.8,0,1.3-0.5,1.3-1.3c0-0.8-0.5-1.3-1.3-1.3h-1.4v2.5H76.9z"/>
				<path style="fill:#FFFFFF;" d="M79.9,172.4h3.3v0.5h-2.7v2.2h2.2v0.5h-2.2v2.2h2.9v0.5h-3.5V172.4z"/>
			</g>
			<g style="enable-background:new    ;">
				<path style="fill:#181B20;" d="M114.1,64.2h0.6v3.8c0,1,0.7,1.6,1.7,1.6c1,0,1.7-0.6,1.7-1.6v-3.8h0.6v3.9
					c0,1.3-0.9,2.2-2.3,2.2c-1.3,0-2.3-0.8-2.3-2.2V64.2z"/>
				<path style="fill:#181B20;" d="M121.6,64.8h-2.1v-0.5h4.8v0.5h-2.1v5.4h-0.6V64.8z"/>
				<path style="fill:#181B20;" d="M125.2,64.2h0.6v5.9h-0.6V64.2z"/>
			</g>
			<g style="enable-background:new    ;">
				<path style="fill:#181B20;" d="M500.1,69.8c0-2.1,3-2.3,3-3.9c0-0.6-0.5-1.1-1.2-1.1c-0.9,0-1.3,0.8-1.3,0.8l-0.4-0.3
					c0,0,0.5-1.1,1.8-1.1c1.1,0,1.8,0.7,1.8,1.7c0,2-3,2.3-3,3.8h3.1v0.5h-3.7C500.1,70,500.1,69.9,500.1,69.8z"/>
				<path style="fill:#181B20;" d="M504.9,67.2c0-1.7,0.5-3.1,2-3.1c1.5,0,2,1.4,2,3.1c0,1.7-0.5,3.1-2,3.1
					C505.4,70.3,504.9,68.9,504.9,67.2z M508.4,67.2c0-1.4-0.3-2.5-1.4-2.5c-1.1,0-1.4,1.1-1.4,2.5c0,1.4,0.3,2.5,1.4,2.5
					C508.1,69.7,508.4,68.6,508.4,67.2z"/>
				<path style="fill:#181B20;" d="M510,69.6h1.3v-4.3c0-0.2,0-0.3,0-0.3h0c0,0-0.1,0.1-0.3,0.4l-0.6,0.6l-0.4-0.4l1.3-1.3h0.5v5.4
					h1.3v0.5H510V69.6z"/>
				<path style="fill:#181B20;" d="M514.3,70l0.2-0.5c0,0,0.4,0.2,0.9,0.2c1.2,0,1.9-1.2,2-2.4h0c-0.3,0.4-0.9,0.7-1.5,0.7
					c-1.1,0-1.8-0.8-1.8-1.9c0-1.2,0.8-2,1.8-2c1.3,0,2.1,1.2,2.1,2.8c0,1.5-0.8,3.3-2.6,3.3C514.7,70.3,514.3,70,514.3,70z
					 M517.3,66.5c0-0.8-0.6-1.8-1.5-1.8c-0.8,0-1.3,0.6-1.3,1.4c0,0.8,0.5,1.4,1.3,1.4C516.7,67.5,517.3,67,517.3,66.5z"/>
			</g>
			<g style="enable-background:new    ;">
				<path style="fill:#181B20;" d="M116.8,91c1.4,0,2.1,0.8,2.1,0.8l-0.3,0.4c0,0-0.7-0.7-1.8-0.7c-1.4,0-2.4,1.1-2.4,2.5
					c0,1.4,1,2.6,2.4,2.6c1.2,0,1.9-0.8,1.9-0.8l0.3,0.4c0,0-0.8,0.9-2.3,0.9c-1.7,0-3-1.4-3-3.1C113.8,92.3,115.1,91,116.8,91z"/>
				<path style="fill:#181B20;" d="M120.3,91.1h1.9c1.8,0,3,1.1,3,3c0,1.9-1.2,3-3,3h-1.9V91.1z M122.1,96.5c1.5,0,2.4-0.9,2.4-2.4
					c0-1.6-1-2.4-2.4-2.4h-1.3v4.9H122.1z"/>
				<path style="fill:#181B20;" d="M126.5,91.1h0.6V97h-0.6V91.1z"/>
			</g>
			<g style="enable-background:new    ;">
				<path style="fill:#181B20;" d="M114.2,113.7h2c1.1,0,1.8,0.7,1.8,1.8c0,1.1-0.8,1.8-1.8,1.8h-1.5v2.3h-0.6V113.7z M116.1,116.8
					c0.8,0,1.3-0.5,1.3-1.3c0-0.8-0.5-1.3-1.3-1.3h-1.4v2.5H116.1z"/>
				<path style="fill:#181B20;" d="M118.2,119h0.7v0.7h-0.7V119z"/>
				<path style="fill:#181B20;" d="M122.7,113.7h0.6v2.7h3.4v-2.7h0.6v5.9h-0.6v-2.7h-3.4v2.7h-0.6V113.7z"/>
				<path style="fill:#181B20;" d="M131.9,117.7h-2.4l-0.7,1.9h-0.6l2.2-5.9h0.6l2.2,5.9h-0.6L131.9,117.7z M130.7,114.3
					c0,0-0.1,0.5-0.2,0.8l-0.8,2.1h2l-0.8-2.1C130.9,114.8,130.7,114.3,130.7,114.3L130.7,114.3z"/>
				<path style="fill:#181B20;" d="M134.2,113.7h2c0.9,0,1.6,0.6,1.6,1.5c0,0.6-0.3,1.1-0.7,1.3v0c0.6,0.2,1,0.7,1,1.5
					c0,1.1-0.8,1.7-1.8,1.7h-2.1V113.7z M136.2,116.3c0.6,0,1-0.4,1-1c0-0.6-0.4-1-1-1h-1.4v2H136.2z M136.3,119.1
					c0.7,0,1.2-0.4,1.2-1.2s-0.5-1.2-1.2-1.2h-1.5v2.3H136.3z"/>
				<path style="fill:#181B20;" d="M139.4,113.7h2c1.1,0,1.8,0.7,1.8,1.8c0,1.1-0.8,1.8-1.8,1.8H140v2.3h-0.6V113.7z M141.4,116.8
					c0.8,0,1.3-0.5,1.3-1.3c0-0.8-0.5-1.3-1.3-1.3H140v2.5H141.4z"/>
				<path style="fill:#181B20;" d="M143.5,118.9h0.6l-0.6,1.5h-0.5L143.5,118.9z"/>
				<path style="fill:#181B20;" d="M147.2,113.7h0.6l1.6,4.5c0.1,0.3,0.2,0.8,0.2,0.8h0c0,0,0.1-0.5,0.2-0.8l1.6-4.5h0.6l-2.2,5.9
					h-0.6L147.2,113.7z"/>
				<path style="fill:#181B20;" d="M155.8,117.7h-2.4l-0.7,1.9h-0.6l2.2-5.9h0.6l2.2,5.9h-0.6L155.8,117.7z M154.6,114.3
					c0,0-0.1,0.5-0.2,0.8l-0.8,2.1h2l-0.8-2.1C154.7,114.8,154.6,114.3,154.6,114.3L154.6,114.3z"/>
				<path style="fill:#181B20;" d="M158,113.7h2c0.9,0,1.6,0.6,1.6,1.5c0,0.6-0.3,1.1-0.7,1.3v0c0.6,0.2,1,0.7,1,1.5
					c0,1.1-0.8,1.7-1.8,1.7H158V113.7z M160.1,116.3c0.6,0,1-0.4,1-1c0-0.6-0.4-1-1-1h-1.4v2H160.1z M160.1,119.1
					c0.7,0,1.2-0.4,1.2-1.2s-0.5-1.2-1.2-1.2h-1.5v2.3H160.1z"/>
				<path style="fill:#181B20;" d="M163.3,113.7h2c1.1,0,1.8,0.7,1.8,1.8c0,1.1-0.8,1.8-1.8,1.8h-1.5v2.3h-0.6V113.7z M165.3,116.8
					c0.8,0,1.3-0.5,1.3-1.3c0-0.8-0.5-1.3-1.3-1.3h-1.4v2.5H165.3z"/>
				<path style="fill:#181B20;" d="M167.4,118.9h0.6l-0.6,1.5h-0.5L167.4,118.9z"/>
				<path style="fill:#181B20;" d="M174.4,113.6c1.4,0,2.1,0.8,2.1,0.8l-0.3,0.4c0,0-0.7-0.7-1.8-0.7c-1.4,0-2.4,1.1-2.4,2.5
					c0,1.4,1,2.6,2.4,2.6c1.2,0,1.9-0.8,1.9-0.8l0.3,0.4c0,0-0.8,0.9-2.3,0.9c-1.7,0-3-1.4-3-3.1
					C171.4,114.9,172.7,113.6,174.4,113.6z"/>
				<path style="fill:#181B20;" d="M180.8,117.7h-2.4l-0.7,1.9h-0.6l2.2-5.9h0.6l2.2,5.9h-0.6L180.8,117.7z M179.7,114.3
					c0,0-0.1,0.5-0.2,0.8l-0.8,2.1h2l-0.8-2.1C179.8,114.8,179.7,114.3,179.7,114.3L179.7,114.3z"/>
				<path style="fill:#181B20;" d="M183.1,113.7h2c0.9,0,1.6,0.6,1.6,1.5c0,0.6-0.3,1.1-0.7,1.3v0c0.6,0.2,1,0.7,1,1.5
					c0,1.1-0.8,1.7-1.8,1.7h-2.1V113.7z M185.1,116.3c0.6,0,1-0.4,1-1c0-0.6-0.4-1-1-1h-1.4v2H185.1z M185.2,119.1
					c0.7,0,1.2-0.4,1.2-1.2s-0.5-1.2-1.2-1.2h-1.5v2.3H185.2z"/>
				<path style="fill:#181B20;" d="M188.4,113.7h2c1.1,0,1.8,0.7,1.8,1.8c0,1.1-0.8,1.8-1.8,1.8H189v2.3h-0.6V113.7z M190.3,116.8
					c0.8,0,1.3-0.5,1.3-1.3c0-0.8-0.5-1.3-1.3-1.3H189v2.5H190.3z"/>
				<path style="fill:#181B20;" d="M192.5,118.9h0.6l-0.6,1.5H192L192.5,118.9z"/>
			</g>
			<g style="enable-background:new    ;">
				<path style="fill:#181B20;" d="M116.8,123.9c1.4,0,2.1,0.8,2.1,0.8l-0.3,0.4c0,0-0.7-0.7-1.8-0.7c-1.4,0-2.4,1.1-2.4,2.5
					c0,1.4,1,2.6,2.4,2.6c1.2,0,1.9-0.8,1.9-0.8l0.3,0.4c0,0-0.8,0.9-2.3,0.9c-1.7,0-3-1.4-3-3.1
					C113.8,125.2,115.1,123.9,116.8,123.9z"/>
				<path style="fill:#181B20;" d="M120.3,124h3.1v0.5h-2.5v2.2h2.2v0.5h-2.2v2.6h-0.6V124z"/>
				<path style="fill:#181B20;" d="M126.7,125.7h0.5v0.4c0,0.2,0,0.3,0,0.3h0c0,0,0.3-0.8,1.5-0.8c1.1,0,1.8,0.9,1.8,2.2
					c0,1.3-0.8,2.2-1.9,2.2c-1,0-1.4-0.8-1.4-0.8h0c0,0,0,0.2,0,0.4v2h-0.6V125.7z M128.6,129.5c0.7,0,1.4-0.6,1.4-1.7
					c0-1-0.5-1.7-1.3-1.7c-0.7,0-1.4,0.5-1.4,1.7C127.3,128.7,127.7,129.5,128.6,129.5z"/>
				<path style="fill:#181B20;" d="M131.7,125.7h0.6v0.6c0,0.2,0,0.3,0,0.3h0c0.2-0.4,0.7-1.1,1.7-1.1c1,0,1.4,0.6,1.4,1.6v2.7h-0.6
					v-2.5c0-0.7-0.1-1.3-0.9-1.3c-0.7,0-1.3,0.5-1.5,1.2c0,0.2-0.1,0.4-0.1,0.6v2h-0.6V125.7z"/>
				<path style="fill:#181B20;" d="M138.4,125.6c1.2,0,1.8,0.9,1.8,2c0,0.1,0,0.3,0,0.3h-3.2c0,1.1,0.8,1.7,1.6,1.7
					c0.8,0,1.3-0.5,1.3-0.5l0.3,0.4c0,0-0.6,0.6-1.6,0.6c-1.3,0-2.2-0.9-2.2-2.2C136.4,126.4,137.3,125.6,138.4,125.6z M139.6,127.3
					c0-0.9-0.6-1.3-1.2-1.3c-0.7,0-1.3,0.4-1.5,1.3H139.6z"/>
				<path style="fill:#181B20;" d="M141.2,125.7h0.6v2.5c0,0.7,0.1,1.3,0.9,1.3c1,0,1.6-0.8,1.6-1.8v-2h0.6v4.2h-0.6v-0.6
					c0-0.2,0-0.3,0-0.3h0c-0.2,0.4-0.7,1.1-1.7,1.1c-1,0-1.4-0.5-1.4-1.6V125.7z"/>
				<path style="fill:#181B20;" d="M146.2,125.7h0.6v0.6c0,0.2,0,0.3,0,0.3h0c0.2-0.6,0.9-1.1,1.5-1.1c0.8,0,1.2,0.4,1.3,1.1h0
					c0.2-0.6,0.8-1.1,1.6-1.1c1,0,1.4,0.6,1.4,1.6v2.7H152v-2.5c0-0.7-0.1-1.3-0.9-1.3c-0.6,0-1.2,0.6-1.3,1.2
					c-0.1,0.2-0.1,0.4-0.1,0.6v2h-0.6v-2.5c0-0.6-0.1-1.3-0.9-1.3c-0.7,0-1.2,0.6-1.4,1.2c0,0.2-0.1,0.4-0.1,0.6v2h-0.6V125.7z"/>
				<path style="fill:#181B20;" d="M155.9,125.6c1.2,0,2.2,0.9,2.2,2.2c0,1.3-1,2.2-2.2,2.2c-1.2,0-2.2-1-2.2-2.2
					C153.6,126.5,154.6,125.6,155.9,125.6z M155.9,129.5c0.9,0,1.6-0.7,1.6-1.7c0-1-0.7-1.7-1.6-1.7c-0.9,0-1.6,0.7-1.6,1.7
					C154.2,128.8,155,129.5,155.9,129.5z"/>
				<path style="fill:#181B20;" d="M159.2,125.7h0.6v0.6c0,0.2,0,0.3,0,0.3h0c0.2-0.4,0.7-1.1,1.7-1.1c1,0,1.4,0.6,1.4,1.6v2.7h-0.6
					v-2.5c0-0.7-0.1-1.3-0.9-1.3c-0.7,0-1.3,0.5-1.5,1.2c0,0.2-0.1,0.4-0.1,0.6v2h-0.6V125.7z"/>
				<path style="fill:#181B20;" d="M164.1,124h0.6v0.7h-0.6V124z M164.2,125.7h0.6v4.2h-0.6V125.7z"/>
				<path style="fill:#181B20;" d="M168.3,127.3h0.2v-0.1c0-0.8-0.4-1.1-1.1-1.1c-0.7,0-1.2,0.4-1.2,0.4l-0.3-0.4
					c0,0,0.6-0.5,1.5-0.5c1,0,1.6,0.6,1.6,1.6v2.7h-0.5v-0.5c0-0.2,0-0.4,0-0.4h0c0,0-0.4,0.9-1.4,0.9c-0.7,0-1.4-0.4-1.4-1.3
					C165.8,127.3,167.6,127.3,168.3,127.3z M167.3,129.5c0.8,0,1.3-0.8,1.3-1.6v-0.2h-0.2c-0.7,0-2,0-2,1
					C166.3,129.1,166.7,129.5,167.3,129.5z"/>
			</g>
			<g style="enable-background:new    ;">
				<path style="fill:#181B20;" d="M114.2,145.5h2c0.9,0,1.6,0.6,1.6,1.5c0,0.6-0.3,1.1-0.7,1.3v0c0.6,0.2,1,0.7,1,1.5
					c0,1.1-0.8,1.7-1.8,1.7h-2.1V145.5z M116.2,148.1c0.6,0,1-0.4,1-1c0-0.6-0.4-1-1-1h-1.4v2H116.2z M116.3,150.9
					c0.7,0,1.2-0.4,1.2-1.2s-0.5-1.2-1.2-1.2h-1.5v2.3H116.3z"/>
				<path style="fill:#181B20;" d="M119.3,150.3c0,0,0.6,0.6,1.5,0.6c0.6,0,1.2-0.4,1.2-1c0-1.5-3-1.1-3-2.9c0-0.8,0.7-1.6,1.8-1.6
					c1,0,1.6,0.6,1.6,0.6l-0.3,0.5c0,0-0.5-0.5-1.3-0.5c-0.8,0-1.2,0.5-1.2,1c0,1.4,3,1,3,2.9c0,0.9-0.7,1.6-1.8,1.6
					c-1.2,0-1.9-0.8-1.9-0.8L119.3,150.3z"/>
				<path style="fill:#181B20;" d="M123.9,150.3c0,0,0.6,0.6,1.5,0.6c0.6,0,1.2-0.4,1.2-1c0-1.5-3-1.1-3-2.9c0-0.8,0.7-1.6,1.8-1.6
					c1,0,1.6,0.6,1.6,0.6l-0.3,0.5c0,0-0.5-0.5-1.3-0.5c-0.8,0-1.2,0.5-1.2,1c0,1.4,3,1,3,2.9c0,0.9-0.7,1.6-1.8,1.6
					c-1.2,0-1.9-0.8-1.9-0.8L123.9,150.3z"/>
				<path style="fill:#181B20;" d="M128.4,150.3c0,0,0.6,0.6,1.5,0.6c0.6,0,1.2-0.4,1.2-1c0-1.5-3-1.1-3-2.9c0-0.8,0.7-1.6,1.8-1.6
					c1,0,1.6,0.6,1.6,0.6l-0.3,0.5c0,0-0.5-0.5-1.3-0.5c-0.8,0-1.2,0.5-1.2,1c0,1.4,3,1,3,2.9c0,0.9-0.7,1.6-1.8,1.6
					c-1.2,0-1.9-0.8-1.9-0.8L128.4,150.3z"/>
				<path style="fill:#181B20;" d="M133,145.5h0.6v5.9H133V145.5z"/>
				<path style="fill:#181B20;" d="M135.1,150.7h0.6l-0.6,1.5h-0.5L135.1,150.7z"/>
				<path style="fill:#181B20;" d="M139.5,145.5h2c1.1,0,1.8,0.7,1.8,1.8c0,1.1-0.8,1.8-1.8,1.8h-1.5v2.3h-0.6V145.5z M141.5,148.6
					c0.8,0,1.3-0.5,1.3-1.3c0-0.8-0.5-1.3-1.3-1.3h-1.4v2.5H141.5z"/>
				<path style="fill:#181B20;" d="M143.6,149.5h0.6v0.2c0,0.9,0.5,1.2,1.1,1.2c0.5,0,1.1-0.3,1.1-1.2V146h-1.4v-0.5h2v4.3
					c0,1.3-0.8,1.8-1.7,1.8c-0.8,0-1.7-0.5-1.7-1.8V149.5z"/>
				<path style="fill:#181B20;" d="M148.6,145.5h0.6v5.9h-0.6V145.5z"/>
				<path style="fill:#181B20;" d="M150.7,150.7h0.6l-0.6,1.5h-0.5L150.7,150.7z"/>
				<path style="fill:#181B20;" d="M154.9,145.5h0.6v2.1c0,0.2,0,0.3,0,0.3h0c0,0,0.4-0.8,1.4-0.8c1.1,0,1.8,0.9,1.8,2.2
					c0,1.3-0.8,2.2-1.9,2.2c-1,0-1.4-0.8-1.4-0.8h0c0,0,0,0.1,0,0.3v0.4h-0.6V145.5z M156.8,151c0.7,0,1.4-0.6,1.4-1.7
					c0-1-0.5-1.7-1.3-1.7c-0.7,0-1.4,0.5-1.4,1.7C155.5,150.2,155.9,151,156.8,151z"/>
				<path style="fill:#181B20;" d="M162.1,148.8h0.2v-0.1c0-0.8-0.4-1.1-1.1-1.1c-0.7,0-1.2,0.4-1.2,0.4l-0.3-0.4
					c0,0,0.6-0.5,1.5-0.5c1,0,1.6,0.6,1.6,1.6v2.7h-0.5V151c0-0.2,0-0.4,0-0.4h0c0,0-0.4,0.9-1.4,0.9c-0.7,0-1.4-0.4-1.4-1.3
					C159.5,148.8,161.4,148.8,162.1,148.8z M161.1,151c0.8,0,1.3-0.8,1.3-1.6v-0.2h-0.2c-0.7,0-2,0-2,1
					C160.1,150.6,160.4,151,161.1,151z"/>
				<path style="fill:#181B20;" d="M166.2,147.1c1,0,1.5,0.6,1.5,0.6l-0.3,0.4c0,0-0.5-0.5-1.2-0.5c-0.9,0-1.6,0.7-1.6,1.7
					c0,1,0.7,1.7,1.7,1.7c0.9,0,1.4-0.6,1.4-0.6l0.3,0.4c0,0-0.6,0.7-1.6,0.7c-1.3,0-2.2-0.9-2.2-2.2
					C163.9,148,164.9,147.1,166.2,147.1z"/>
				<path style="fill:#181B20;" d="M169,147.7h-0.6v-0.5h0.6V146h0.6v1.2h1.1v0.5h-1.1v2.1c0,1,0.6,1.1,1,1.1c0.1,0,0.2,0,0.2,0v0.5
					c0,0-0.1,0-0.2,0c-0.5,0-1.5-0.2-1.5-1.6V147.7z"/>
				<path style="fill:#181B20;" d="M173.5,147.1c1.2,0,1.8,0.9,1.8,2c0,0.1,0,0.3,0,0.3H172c0,1.1,0.8,1.7,1.6,1.7
					c0.8,0,1.3-0.5,1.3-0.5l0.3,0.4c0,0-0.6,0.6-1.6,0.6c-1.3,0-2.2-0.9-2.2-2.2C171.4,147.9,172.3,147.1,173.5,147.1z M174.6,148.9
					c0-0.9-0.6-1.3-1.2-1.3c-0.7,0-1.3,0.4-1.5,1.3H174.6z"/>
				<path style="fill:#181B20;" d="M176.3,147.2h0.6v0.7c0,0.2,0,0.3,0,0.3h0c0.2-0.6,0.7-1.1,1.3-1.1c0.1,0,0.2,0,0.2,0v0.6
					c0,0-0.1,0-0.2,0c-0.6,0-1,0.5-1.2,1.1c-0.1,0.3-0.1,0.6-0.1,0.8v1.8h-0.6V147.2z"/>
				<path style="fill:#181B20;" d="M181,147.1c1.2,0,1.8,0.9,1.8,2c0,0.1,0,0.3,0,0.3h-3.2c0,1.1,0.8,1.7,1.6,1.7
					c0.8,0,1.3-0.5,1.3-0.5l0.3,0.4c0,0-0.6,0.6-1.6,0.6c-1.3,0-2.2-0.9-2.2-2.2C179,147.9,179.9,147.1,181,147.1z M182.2,148.9
					c0-0.9-0.6-1.3-1.2-1.3c-0.7,0-1.3,0.4-1.5,1.3H182.2z"/>
				<path style="fill:#181B20;" d="M183.9,147.2h0.6v0.6c0,0.2,0,0.3,0,0.3h0c0.2-0.6,0.9-1.1,1.5-1.1c0.8,0,1.2,0.4,1.3,1.1h0
					c0.2-0.6,0.8-1.1,1.6-1.1c1,0,1.4,0.6,1.4,1.6v2.7h-0.6v-2.5c0-0.7-0.1-1.3-0.9-1.3c-0.6,0-1.2,0.6-1.3,1.2
					c-0.1,0.2-0.1,0.4-0.1,0.6v2h-0.6v-2.5c0-0.6-0.1-1.3-0.9-1.3c-0.7,0-1.2,0.6-1.4,1.2c0,0.2-0.1,0.4-0.1,0.6v2h-0.6V147.2z"/>
				<path style="fill:#181B20;" d="M191.6,145.5h0.6v0.7h-0.6V145.5z M191.6,147.2h0.6v4.2h-0.6V147.2z"/>
				<path style="fill:#181B20;" d="M195.8,148.8h0.2v-0.1c0-0.8-0.4-1.1-1.1-1.1c-0.7,0-1.2,0.4-1.2,0.4l-0.3-0.4
					c0,0,0.6-0.5,1.5-0.5c1,0,1.6,0.6,1.6,1.6v2.7h-0.5V151c0-0.2,0-0.4,0-0.4h0c0,0-0.4,0.9-1.4,0.9c-0.7,0-1.4-0.4-1.4-1.3
					C193.2,148.8,195.1,148.8,195.8,148.8z M194.7,151c0.8,0,1.3-0.8,1.3-1.6v-0.2h-0.2c-0.7,0-2,0-2,1
					C193.8,150.6,194.1,151,194.7,151z"/>
			</g>
			<g style="enable-background:new    ;">
				<path style="fill:#181B20;" d="M114.1,172.4h0.6v3.8c0,1,0.7,1.6,1.7,1.6c1,0,1.7-0.6,1.7-1.6v-3.8h0.6v3.9
					c0,1.3-0.9,2.2-2.3,2.2c-1.3,0-2.3-0.8-2.3-2.2V172.4z"/>
				<path style="fill:#181B20;" d="M120.1,174.1h0.6v0.6c0,0.2,0,0.3,0,0.3h0c0.2-0.4,0.7-1.1,1.7-1.1c1,0,1.4,0.6,1.4,1.6v2.7h-0.6
					v-2.5c0-0.7-0.1-1.3-0.9-1.3c-0.7,0-1.3,0.5-1.5,1.2c0,0.2-0.1,0.4-0.1,0.6v2h-0.6V174.1z"/>
				<path style="fill:#181B20;" d="M126.7,174c1,0,1.4,0.8,1.4,0.8h0c0,0,0-0.1,0-0.3v-2.1h0.6v5.9h-0.6v-0.4c0-0.2,0-0.3,0-0.3h0
					c0,0-0.3,0.8-1.5,0.8c-1.1,0-1.8-0.9-1.8-2.2C124.8,174.9,125.6,174,126.7,174z M126.7,177.9c0.7,0,1.4-0.5,1.4-1.7
					c0-0.9-0.4-1.7-1.3-1.7c-0.7,0-1.4,0.6-1.4,1.7C125.4,177.2,125.9,177.9,126.7,177.9z"/>
				<path style="fill:#181B20;" d="M130,172.4h0.6v0.7H130V172.4z M130,174.1h0.6v4.2H130V174.1z"/>
				<path style="fill:#181B20;" d="M131.9,177.4c0,0,0.5,0.5,1.3,0.5c0.5,0,0.8-0.2,0.8-0.7c0-0.9-2.3-0.7-2.3-2.1
					c0-0.8,0.7-1.2,1.4-1.2c0.9,0,1.3,0.5,1.3,0.5l-0.3,0.4c0,0-0.4-0.4-1.1-0.4c-0.4,0-0.8,0.2-0.8,0.7c0,0.9,2.3,0.7,2.3,2.1
					c0,0.7-0.6,1.2-1.4,1.2c-1,0-1.6-0.6-1.6-0.6L131.9,177.4z"/>
				<path style="fill:#181B20;" d="M137.6,174c1,0,1.5,0.6,1.5,0.6l-0.3,0.4c0,0-0.5-0.5-1.2-0.5c-0.9,0-1.6,0.7-1.6,1.7
					c0,1,0.7,1.7,1.7,1.7c0.9,0,1.4-0.6,1.4-0.6l0.3,0.4c0,0-0.6,0.7-1.6,0.7c-1.3,0-2.2-0.9-2.2-2.2
					C135.4,174.9,136.4,174,137.6,174z"/>
				<path style="fill:#181B20;" d="M140.3,172.4h0.6v4.8c0,0.6,0.3,0.6,0.5,0.6c0.1,0,0.1,0,0.1,0v0.5c0,0-0.1,0-0.2,0
					c-0.4,0-1-0.1-1-1V172.4z"/>
				<path style="fill:#181B20;" d="M144.3,174c1.2,0,2.2,0.9,2.2,2.2c0,1.3-1,2.2-2.2,2.2c-1.2,0-2.2-1-2.2-2.2
					C142.1,174.9,143.1,174,144.3,174z M144.3,177.9c0.9,0,1.6-0.7,1.6-1.7c0-1-0.7-1.7-1.6-1.7c-0.9,0-1.6,0.7-1.6,1.7
					C142.7,177.2,143.4,177.9,144.3,177.9z"/>
				<path style="fill:#181B20;" d="M147.6,177.4c0,0,0.5,0.5,1.3,0.5c0.5,0,0.8-0.2,0.8-0.7c0-0.9-2.3-0.7-2.3-2.1
					c0-0.8,0.7-1.2,1.4-1.2c0.9,0,1.3,0.5,1.3,0.5l-0.3,0.4c0,0-0.4-0.4-1.1-0.4c-0.4,0-0.8,0.2-0.8,0.7c0,0.9,2.3,0.7,2.3,2.1
					c0,0.7-0.6,1.2-1.4,1.2c-1,0-1.6-0.6-1.6-0.6L147.6,177.4z"/>
				<path style="fill:#181B20;" d="M153.1,174c1.2,0,1.8,0.9,1.8,2c0,0.1,0,0.3,0,0.3h-3.2c0,1.1,0.8,1.7,1.6,1.7
					c0.8,0,1.3-0.5,1.3-0.5l0.3,0.4c0,0-0.6,0.6-1.6,0.6c-1.3,0-2.2-0.9-2.2-2.2C151.1,174.8,152,174,153.1,174z M154.3,175.8
					c0-0.9-0.6-1.3-1.2-1.3c-0.7,0-1.3,0.4-1.5,1.3H154.3z"/>
				<path style="fill:#181B20;" d="M157.6,174c1,0,1.4,0.8,1.4,0.8h0c0,0,0-0.1,0-0.3v-2.1h0.6v5.9H159v-0.4c0-0.2,0-0.3,0-0.3h0
					c0,0-0.3,0.8-1.5,0.8c-1.1,0-1.8-0.9-1.8-2.2C155.7,174.9,156.5,174,157.6,174z M157.6,177.9c0.7,0,1.4-0.5,1.4-1.7
					c0-0.9-0.4-1.7-1.3-1.7c-0.7,0-1.4,0.6-1.4,1.7C156.3,177.2,156.9,177.9,157.6,177.9z"/>
			</g>
			<g style="enable-background:new    ;">
				<path style="fill:#FFFFFF;" d="M114.1,29.8h0.8v5.9h-0.8V29.8z"/>
				<path style="fill:#FFFFFF;" d="M116.4,31.5h0.8v0.6c0,0.2,0,0.3,0,0.3h0c0.2-0.4,0.7-1,1.6-1c1,0,1.5,0.5,1.5,1.6v2.7h-0.8v-2.5
					c0-0.6-0.1-1.1-0.8-1.1c-0.6,0-1.2,0.4-1.3,1c0,0.2-0.1,0.4-0.1,0.6v2h-0.8V31.5z"/>
				<path style="fill:#FFFFFF;" d="M123.1,31.4c1,0,1.3,0.7,1.3,0.7h0c0,0,0-0.1,0-0.3v-2h0.8v5.9h-0.8v-0.4c0-0.2,0-0.3,0-0.3h0
					c0,0-0.3,0.8-1.4,0.8c-1.2,0-1.9-0.9-1.9-2.2C121.2,32.3,122,31.4,123.1,31.4z M123.2,35.2c0.6,0,1.2-0.4,1.2-1.5
					c0-0.8-0.4-1.5-1.2-1.5c-0.7,0-1.2,0.6-1.2,1.5C122,34.6,122.5,35.2,123.2,35.2z"/>
				<path style="fill:#FFFFFF;" d="M126.5,29.8h0.8v0.8h-0.8V29.8z M126.5,31.5h0.8v4.3h-0.8V31.5z"/>
				<path style="fill:#FFFFFF;" d="M130.6,31.4c1.1,0,1.6,0.6,1.6,0.6l-0.4,0.6c0,0-0.5-0.5-1.2-0.5c-0.9,0-1.5,0.6-1.5,1.5
					c0,0.9,0.6,1.5,1.5,1.5c0.8,0,1.3-0.6,1.3-0.6l0.3,0.6c0,0-0.6,0.7-1.7,0.7c-1.3,0-2.3-1-2.3-2.2
					C128.3,32.4,129.3,31.4,130.6,31.4z"/>
				<path style="fill:#FFFFFF;" d="M135.4,33.1h0.2V33c0-0.7-0.4-0.9-0.9-0.9c-0.7,0-1.2,0.4-1.2,0.4l-0.3-0.6c0,0,0.6-0.5,1.6-0.5
					c1.1,0,1.7,0.6,1.7,1.7v2.7h-0.8v-0.4c0-0.2,0-0.3,0-0.3h0c0,0-0.3,0.8-1.4,0.8c-0.7,0-1.4-0.4-1.4-1.3
					C132.9,33.2,134.7,33.1,135.4,33.1z M134.5,35.2c0.7,0,1.1-0.7,1.1-1.4v-0.1h-0.2c-0.6,0-1.7,0-1.7,0.8
					C133.7,34.9,134,35.2,134.5,35.2z"/>
				<path style="fill:#FFFFFF;" d="M137.8,32.2h-0.6v-0.7h0.6v-1.2h0.8v1.2h1v0.7h-1v1.9c0,0.8,0.6,1,0.9,1c0.1,0,0.2,0,0.2,0v0.7
					c0,0-0.1,0-0.3,0c-0.5,0-1.6-0.2-1.6-1.6V32.2z"/>
				<path style="fill:#FFFFFF;" d="M140.6,29.8h0.8v0.8h-0.8V29.8z M140.6,31.5h0.8v4.3h-0.8V31.5z"/>
				<path style="fill:#FFFFFF;" d="M144.7,31.4c1.3,0,2.3,0.9,2.3,2.2c0,1.3-1,2.2-2.3,2.2s-2.3-0.9-2.3-2.2
					C142.4,32.4,143.4,31.4,144.7,31.4z M144.7,35.2c0.8,0,1.5-0.6,1.5-1.5c0-0.9-0.7-1.5-1.5-1.5c-0.8,0-1.5,0.6-1.5,1.5
					C143.3,34.5,143.9,35.2,144.7,35.2z"/>
				<path style="fill:#FFFFFF;" d="M148,31.5h0.8v0.6c0,0.2,0,0.3,0,0.3h0c0.2-0.4,0.7-1,1.6-1c1,0,1.5,0.5,1.5,1.6v2.7H151v-2.5
					c0-0.6-0.1-1.1-0.8-1.1c-0.6,0-1.2,0.4-1.3,1c0,0.2-0.1,0.4-0.1,0.6v2H148V31.5z"/>
				<path style="fill:#FFFFFF;" d="M153.1,34.7c0,0,0.5,0.5,1.2,0.5c0.4,0,0.7-0.2,0.7-0.5c0-0.8-2.2-0.6-2.2-2
					c0-0.8,0.7-1.2,1.5-1.2c0.9,0,1.4,0.5,1.4,0.5l-0.3,0.6c0,0-0.4-0.4-1.1-0.4c-0.4,0-0.7,0.2-0.7,0.5c0,0.8,2.2,0.6,2.2,2
					c0,0.7-0.6,1.2-1.5,1.2c-1,0-1.6-0.6-1.6-0.6L153.1,34.7z"/>
			</g>
			<g style="enable-background:new    ;">
				<path style="fill:#FFFFFF;" d="M216.9,29.8h2c1.8,0,3,1.1,3,3c0,1.9-1.2,3-3,3h-2V29.8z M218.8,35c1.3,0,2.2-0.8,2.2-2.3
					c0-1.5-0.9-2.2-2.2-2.2h-1.1V35H218.8z"/>
				<path style="fill:#FFFFFF;" d="M222.9,29.8h0.8v0.8h-0.8V29.8z M222.9,31.5h0.8v4.3h-0.8V31.5z"/>
				<path style="fill:#FFFFFF;" d="M225.1,34.7c0,0,0.5,0.5,1.2,0.5c0.4,0,0.7-0.2,0.7-0.5c0-0.8-2.2-0.6-2.2-2
					c0-0.8,0.7-1.2,1.5-1.2c0.9,0,1.4,0.5,1.4,0.5l-0.3,0.6c0,0-0.4-0.4-1.1-0.4c-0.4,0-0.7,0.2-0.7,0.5c0,0.8,2.2,0.6,2.2,2
					c0,0.7-0.6,1.2-1.5,1.2c-1,0-1.6-0.6-1.6-0.6L225.1,34.7z"/>
				<path style="fill:#FFFFFF;" d="M230.8,31.4c1.1,0,1.6,0.6,1.6,0.6l-0.4,0.6c0,0-0.5-0.5-1.2-0.5c-0.9,0-1.5,0.6-1.5,1.5
					c0,0.9,0.6,1.5,1.5,1.5c0.8,0,1.3-0.6,1.3-0.6l0.3,0.6c0,0-0.6,0.7-1.7,0.7c-1.3,0-2.3-1-2.3-2.2
					C228.5,32.4,229.4,31.4,230.8,31.4z"/>
				<path style="fill:#FFFFFF;" d="M235.4,31.4c1.3,0,2.3,0.9,2.3,2.2c0,1.3-1,2.2-2.3,2.2s-2.3-0.9-2.3-2.2
					C233.1,32.4,234.1,31.4,235.4,31.4z M235.4,35.2c0.8,0,1.5-0.6,1.5-1.5c0-0.9-0.7-1.5-1.5-1.5c-0.8,0-1.5,0.6-1.5,1.5
					C233.9,34.5,234.6,35.2,235.4,35.2z"/>
				<path style="fill:#FFFFFF;" d="M238,31.5h0.9l1,2.9c0.1,0.2,0.1,0.6,0.1,0.6h0c0,0,0.1-0.3,0.2-0.6l1-2.9h0.9l-1.6,4.3h-0.9
					L238,31.5z"/>
				<path style="fill:#FFFFFF;" d="M244.7,31.4c1.2,0,1.8,0.9,1.8,2c0,0.1,0,0.4,0,0.4h-3.1c0,0.9,0.7,1.4,1.5,1.4
					c0.7,0,1.3-0.5,1.3-0.5l0.3,0.6c0,0-0.6,0.6-1.6,0.6c-1.3,0-2.3-1-2.3-2.2C242.6,32.3,243.5,31.4,244.7,31.4z M245.7,33.1
					c0-0.7-0.5-1.1-1-1.1c-0.6,0-1.1,0.4-1.2,1.1H245.7z"/>
				<path style="fill:#FFFFFF;" d="M247.5,31.5h0.8v0.7c0,0.2,0,0.3,0,0.3h0c0.2-0.6,0.7-1.1,1.3-1.1c0.1,0,0.2,0,0.2,0v0.8
					c0,0-0.1,0-0.2,0c-0.5,0-1,0.4-1.2,1c-0.1,0.2-0.1,0.5-0.1,0.8v1.7h-0.8V31.5z"/>
				<path style="fill:#FFFFFF;" d="M250.4,36.7c0,0,0.2,0.2,0.5,0.2c0.3,0,0.6-0.2,0.8-0.6l0.2-0.5l-1.8-4.2h0.9l1.1,2.8
					c0.1,0.2,0.2,0.5,0.2,0.5h0c0,0,0.1-0.3,0.1-0.5l1-2.8h0.9l-2,5c-0.3,0.7-0.8,1-1.4,1c-0.5,0-0.8-0.3-0.8-0.3L250.4,36.7z"/>
			</g>
			<g style="enable-background:new    ;">
				<path style="fill:#FFFFFF;" d="M305.6,24c1.4,0,2.2,0.8,2.2,0.8l-0.4,0.6c0,0-0.7-0.6-1.7-0.6c-1.3,0-2.2,1-2.2,2.3
					c0,1.3,0.9,2.3,2.2,2.3c1.1,0,1.8-0.8,1.8-0.8l0.4,0.6c0,0-0.8,0.9-2.3,0.9c-1.8,0-3-1.4-3-3.1C302.5,25.4,303.8,24,305.6,24z"
					/>
				<path style="fill:#FFFFFF;" d="M309,24.1h1.8c0.6,0,0.9,0,1.1,0.1c0.6,0.2,1,0.8,1,1.6c0,0.8-0.4,1.4-1.1,1.6v0
					c0,0,0.1,0.1,0.2,0.3l1.3,2.3h-0.9l-1.3-2.4h-1.3v2.4H309V24.1z M311,27c0.6,0,1.1-0.4,1.1-1.1c0-0.4-0.2-0.7-0.5-0.9
					c-0.2-0.1-0.4-0.1-0.8-0.1h-1V27H311z"/>
				<path style="fill:#FFFFFF;" d="M314.4,24.1h0.8v5.9h-0.8V24.1z"/>
				<path style="fill:#FFFFFF;" d="M316.9,28.8c0,0,0.6,0.6,1.5,0.6c0.6,0,1-0.3,1-0.9c0-1.3-2.9-1-2.9-2.8c0-0.9,0.8-1.7,1.9-1.7
					c1.1,0,1.7,0.6,1.7,0.6l-0.4,0.7c0,0-0.5-0.5-1.3-0.5c-0.6,0-1.1,0.4-1.1,0.9c0,1.2,2.9,0.9,2.9,2.8c0,0.9-0.7,1.7-1.9,1.7
					c-1.3,0-2-0.8-2-0.8L316.9,28.8z"/>
				<path style="fill:#FFFFFF;" d="M321.4,24.1h2.2c1.1,0,1.9,0.7,1.9,1.9c0,1.1-0.8,1.9-1.9,1.9h-1.3v2.2h-0.8V24.1z M323.5,27.2
					c0.7,0,1.2-0.4,1.2-1.2c0-0.7-0.4-1.1-1.1-1.1h-1.2v2.3H323.5z"/>
				<path style="fill:#FFFFFF;" d="M326.5,24.1h1.8c0.6,0,0.9,0,1.1,0.1c0.6,0.2,1,0.8,1,1.6c0,0.8-0.4,1.4-1.1,1.6v0
					c0,0,0.1,0.1,0.2,0.3l1.3,2.3h-0.9l-1.3-2.4h-1.3v2.4h-0.8V24.1z M328.6,27c0.6,0,1.1-0.4,1.1-1.1c0-0.4-0.2-0.7-0.5-0.9
					c-0.2-0.1-0.4-0.1-0.8-0.1h-1V27H328.6z"/>
			</g>
			<g>
			</g>
			<g style="enable-background:new    ;">
				<path style="fill:#FFFFFF;" d="M302.9,35.4h3.4v0.7h-2.6v1.9h2.1v0.7h-2.1v1.9h2.8v0.7h-3.6V35.4z"/>
				<path style="fill:#FFFFFF;" d="M307.6,37h0.8v0.6c0,0.2,0,0.3,0,0.3h0c0.2-0.4,0.7-1,1.6-1c1,0,1.5,0.5,1.5,1.6v2.7h-0.8v-2.5
					c0-0.6-0.1-1.1-0.8-1.1c-0.6,0-1.2,0.4-1.3,1c0,0.2-0.1,0.4-0.1,0.6v2h-0.8V37z"/>
				<path style="fill:#FFFFFF;" d="M314.2,42.3c0.7,0,1.3-0.3,1.3-1.2v-0.3c0-0.1,0-0.3,0-0.3h0c-0.3,0.4-0.6,0.7-1.3,0.7
					c-1.2,0-1.9-1-1.9-2.2c0-1.2,0.7-2.1,1.9-2.1c1,0,1.3,0.6,1.3,0.6h0c0,0,0-0.1,0-0.1V37h0.8v4.1c0,1.4-1.1,1.9-2.1,1.9
					c-0.5,0-1-0.1-1.5-0.4l0.3-0.6C313,42.1,313.6,42.3,314.2,42.3z M315.6,39.1c0-1.1-0.5-1.4-1.2-1.4c-0.7,0-1.2,0.5-1.2,1.4
					c0,0.9,0.5,1.5,1.2,1.5C315,40.5,315.6,40.2,315.6,39.1z"/>
				<path style="fill:#FFFFFF;" d="M317.6,35.4h0.8v0.8h-0.8V35.4z M317.6,37h0.8v4.3h-0.8V37z"/>
				<path style="fill:#FFFFFF;" d="M319.7,37h0.8v0.6c0,0.2,0,0.3,0,0.3h0c0.2-0.4,0.7-1,1.6-1c1,0,1.5,0.5,1.5,1.6v2.7h-0.8v-2.5
					c0-0.6-0.1-1.1-0.8-1.1c-0.6,0-1.2,0.4-1.3,1c0,0.2-0.1,0.4-0.1,0.6v2h-0.8V37z"/>
				<path style="fill:#FFFFFF;" d="M326.6,36.9c1.2,0,1.8,0.9,1.8,2c0,0.1,0,0.4,0,0.4h-3.1c0,0.9,0.7,1.4,1.5,1.4
					c0.7,0,1.3-0.5,1.3-0.5l0.3,0.6c0,0-0.6,0.6-1.6,0.6c-1.3,0-2.3-1-2.3-2.2C324.5,37.8,325.4,36.9,326.6,36.9z M327.6,38.7
					c0-0.7-0.5-1.1-1-1.1c-0.6,0-1.1,0.4-1.2,1.1H327.6z"/>
				<path style="fill:#FFFFFF;" d="M331.3,36.9c1.2,0,1.8,0.9,1.8,2c0,0.1,0,0.4,0,0.4H330c0,0.9,0.7,1.4,1.5,1.4
					c0.7,0,1.3-0.5,1.3-0.5l0.3,0.6c0,0-0.6,0.6-1.6,0.6c-1.3,0-2.3-1-2.3-2.2C329.2,37.8,330.1,36.9,331.3,36.9z M332.3,38.7
					c0-0.7-0.5-1.1-1-1.1c-0.6,0-1.1,0.4-1.2,1.1H332.3z"/>
				<path style="fill:#FFFFFF;" d="M334.1,37h0.8v0.7c0,0.2,0,0.3,0,0.3h0c0.2-0.6,0.7-1.1,1.3-1.1c0.1,0,0.2,0,0.2,0v0.8
					c0,0-0.1,0-0.2,0c-0.5,0-1,0.4-1.2,1c-0.1,0.2-0.1,0.5-0.1,0.8v1.7h-0.8V37z"/>
				<path style="fill:#FFFFFF;" d="M337.3,35.4h0.8v0.8h-0.8V35.4z M337.3,37h0.8v4.3h-0.8V37z"/>
				<path style="fill:#FFFFFF;" d="M339.4,37h0.8v0.6c0,0.2,0,0.3,0,0.3h0c0.2-0.4,0.7-1,1.6-1c1,0,1.5,0.5,1.5,1.6v2.7h-0.8v-2.5
					c0-0.6-0.1-1.1-0.8-1.1c-0.6,0-1.2,0.4-1.3,1c0,0.2-0.1,0.4-0.1,0.6v2h-0.8V37z"/>
				<path style="fill:#FFFFFF;" d="M346,42.3c0.7,0,1.3-0.3,1.3-1.2v-0.3c0-0.1,0-0.3,0-0.3h0c-0.3,0.4-0.6,0.7-1.3,0.7
					c-1.2,0-1.9-1-1.9-2.2c0-1.2,0.7-2.1,1.9-2.1c1,0,1.3,0.6,1.3,0.6h0c0,0,0-0.1,0-0.1V37h0.8v4.1c0,1.4-1.1,1.9-2.1,1.9
					c-0.5,0-1-0.1-1.5-0.4l0.3-0.6C344.8,42.1,345.4,42.3,346,42.3z M347.4,39.1c0-1.1-0.5-1.4-1.2-1.4c-0.7,0-1.2,0.5-1.2,1.4
					c0,0.9,0.5,1.5,1.2,1.5C346.8,40.5,347.4,40.2,347.4,39.1z"/>
			</g>
			<g style="enable-background:new    ;">
				<path style="fill:#FFFFFF;" d="M398.8,24.1h2.2c1.1,0,1.9,0.7,1.9,1.9c0,1.1-0.8,1.9-1.9,1.9h-1.3v2.2h-0.8V24.1z M400.8,27.2
					c0.7,0,1.2-0.4,1.2-1.2c0-0.7-0.4-1.1-1.1-1.1h-1.2v2.3H400.8z"/>
				<path style="fill:#FFFFFF;" d="M403.7,25.8h0.8v0.7c0,0.2,0,0.3,0,0.3h0c0.2-0.6,0.7-1.1,1.3-1.1c0.1,0,0.2,0,0.2,0v0.8
					c0,0-0.1,0-0.2,0c-0.5,0-1,0.4-1.2,1c-0.1,0.2-0.1,0.5-0.1,0.8v1.7h-0.8V25.8z"/>
				<path style="fill:#FFFFFF;" d="M408.7,25.7c1.2,0,1.8,0.9,1.8,2c0,0.1,0,0.4,0,0.4h-3.1c0,0.9,0.7,1.4,1.5,1.4
					c0.7,0,1.3-0.5,1.3-0.5l0.3,0.6c0,0-0.6,0.6-1.6,0.6c-1.3,0-2.3-1-2.3-2.2C406.5,26.6,407.5,25.7,408.7,25.7z M409.7,27.5
					c0-0.7-0.5-1.1-1-1.1c-0.6,0-1.1,0.4-1.2,1.1H409.7z"/>
				<path style="fill:#FFFFFF;" d="M413.5,25.7c1.1,0,1.6,0.6,1.6,0.6l-0.4,0.6c0,0-0.5-0.5-1.2-0.5c-0.9,0-1.5,0.6-1.5,1.5
					c0,0.9,0.6,1.5,1.5,1.5c0.8,0,1.3-0.6,1.3-0.6l0.3,0.6c0,0-0.6,0.7-1.7,0.7c-1.3,0-2.3-1-2.3-2.2
					C411.2,26.7,412.1,25.7,413.5,25.7z"/>
				<path style="fill:#FFFFFF;" d="M416,24.1h0.8v4.6c0,0.5,0.2,0.6,0.5,0.6c0.1,0,0.1,0,0.1,0v0.7c0,0-0.1,0-0.3,0
					c-0.5,0-1.1-0.1-1.1-1.2V24.1z"/>
				<path style="fill:#FFFFFF;" d="M418.3,24.1h0.8V25h-0.8V24.1z M418.3,25.8h0.8v4.3h-0.8V25.8z"/>
				<path style="fill:#FFFFFF;" d="M420.4,25.8h0.8v0.6c0,0.2,0,0.3,0,0.3h0c0.2-0.4,0.7-1,1.6-1c1,0,1.5,0.5,1.5,1.6v2.7h-0.8v-2.5
					c0-0.6-0.1-1.1-0.8-1.1c-0.6,0-1.2,0.4-1.3,1c0,0.2-0.1,0.4-0.1,0.6v2h-0.8V25.8z"/>
				<path style="fill:#FFFFFF;" d="M425.5,24.1h0.8V25h-0.8V24.1z M425.5,25.8h0.8v4.3h-0.8V25.8z"/>
				<path style="fill:#FFFFFF;" d="M429.6,25.7c1.1,0,1.6,0.6,1.6,0.6l-0.4,0.6c0,0-0.5-0.5-1.2-0.5c-0.9,0-1.5,0.6-1.5,1.5
					c0,0.9,0.6,1.5,1.5,1.5c0.8,0,1.3-0.6,1.3-0.6l0.3,0.6c0,0-0.6,0.7-1.7,0.7c-1.3,0-2.3-1-2.3-2.2
					C427.3,26.7,428.2,25.7,429.6,25.7z"/>
				<path style="fill:#FFFFFF;" d="M434.4,27.4h0.2v-0.1c0-0.7-0.4-0.9-0.9-0.9c-0.7,0-1.2,0.4-1.2,0.4l-0.3-0.6
					c0,0,0.6-0.5,1.6-0.5c1.1,0,1.7,0.6,1.7,1.7v2.7h-0.8v-0.4c0-0.2,0-0.3,0-0.3h0c0,0-0.3,0.8-1.4,0.8c-0.7,0-1.4-0.4-1.4-1.3
					C431.8,27.5,433.7,27.4,434.4,27.4z M433.5,29.5c0.7,0,1.1-0.7,1.1-1.4V28h-0.2c-0.6,0-1.7,0-1.7,0.8
					C432.7,29.2,432.9,29.5,433.5,29.5z"/>
				<path style="fill:#FFFFFF;" d="M436.6,24.1h0.8v4.6c0,0.5,0.2,0.6,0.5,0.6c0.1,0,0.1,0,0.1,0v0.7c0,0-0.1,0-0.3,0
					c-0.5,0-1.1-0.1-1.1-1.2V24.1z"/>
			</g>
			<g>
			</g>
			<g style="enable-background:new    ;">
				<path style="fill:#FFFFFF;" d="M398.8,35.4h3.4v0.7h-2.6v1.9h2.1v0.7h-2.1v1.9h2.8v0.7h-3.6V35.4z"/>
				<path style="fill:#FFFFFF;" d="M406.5,37.7h-2v3.6h-0.8v-3.6h-0.5V37h0.5v-0.1c0-1.4,1.1-1.6,1.6-1.6c0.2,0,0.3,0,0.3,0V36
					c0,0-0.1,0-0.2,0c-0.3,0-0.9,0.1-0.9,0.9V37h2v-0.1c0-1.4,1.1-1.6,1.6-1.6c0.2,0,0.3,0,0.3,0V36c0,0-0.1,0-0.2,0
					c-0.3,0-0.9,0.1-0.9,0.9V37h2.6v4.3H409v-3.6h-1.8v3.6h-0.8V37.7z M409,35.4h0.8v0.8H409V35.4z"/>
				<path style="fill:#FFFFFF;" d="M413.1,36.9c1.1,0,1.6,0.6,1.6,0.6l-0.4,0.6c0,0-0.5-0.5-1.2-0.5c-0.9,0-1.5,0.6-1.5,1.5
					c0,0.9,0.6,1.5,1.5,1.5c0.8,0,1.3-0.6,1.3-0.6l0.3,0.6c0,0-0.6,0.7-1.7,0.7c-1.3,0-2.3-1-2.3-2.2
					C410.8,37.9,411.8,36.9,413.1,36.9z"/>
				<path style="fill:#FFFFFF;" d="M418,38.6h0.2v-0.1c0-0.7-0.4-0.9-0.9-0.9c-0.7,0-1.2,0.4-1.2,0.4l-0.3-0.6c0,0,0.6-0.5,1.6-0.5
					c1.1,0,1.7,0.6,1.7,1.7v2.7h-0.8v-0.4c0-0.2,0-0.3,0-0.3h0c0,0-0.3,0.8-1.4,0.8c-0.7,0-1.4-0.4-1.4-1.3
					C415.4,38.7,417.2,38.6,418,38.6z M417,40.7c0.7,0,1.1-0.7,1.1-1.4v-0.1h-0.2c-0.6,0-1.7,0-1.7,0.8
					C416.2,40.4,416.5,40.7,417,40.7z"/>
				<path style="fill:#FFFFFF;" d="M422.2,36.9c1.1,0,1.6,0.6,1.6,0.6l-0.4,0.6c0,0-0.5-0.5-1.2-0.5c-0.9,0-1.5,0.6-1.5,1.5
					c0,0.9,0.6,1.5,1.5,1.5c0.8,0,1.3-0.6,1.3-0.6l0.3,0.6c0,0-0.6,0.7-1.7,0.7c-1.3,0-2.3-1-2.3-2.2
					C419.9,37.9,420.8,36.9,422.2,36.9z"/>
				<path style="fill:#FFFFFF;" d="M424.5,42.2c0,0,0.2,0.2,0.5,0.2c0.3,0,0.6-0.2,0.8-0.6l0.2-0.5l-1.8-4.2h0.9l1.1,2.8
					c0.1,0.2,0.2,0.5,0.2,0.5h0c0,0,0.1-0.3,0.1-0.5l1-2.8h0.9l-2,5c-0.3,0.7-0.8,1-1.4,1c-0.5,0-0.8-0.3-0.8-0.3L424.5,42.2z"/>
			</g>
			<g style="enable-background:new    ;">
				<path style="fill:#FFFFFF;" d="M503,29.7c1.4,0,2.2,0.8,2.2,0.8l-0.4,0.6c0,0-0.7-0.6-1.7-0.6c-1.3,0-2.2,1-2.2,2.3
					c0,1.3,0.9,2.3,2.2,2.3c1.1,0,1.8-0.8,1.8-0.8l0.4,0.6c0,0-0.8,0.9-2.3,0.9c-1.8,0-3-1.4-3-3.1C500,31,501.3,29.7,503,29.7z"/>
				<path style="fill:#FFFFFF;" d="M506.2,29.8h0.8v4.6c0,0.5,0.2,0.6,0.5,0.6c0.1,0,0.1,0,0.1,0v0.7c0,0-0.1,0-0.3,0
					c-0.5,0-1.1-0.1-1.1-1.2V29.8z"/>
				<path style="fill:#FFFFFF;" d="M508.5,29.8h0.8v0.8h-0.8V29.8z M508.5,31.5h0.8v4.3h-0.8V31.5z"/>
				<path style="fill:#FFFFFF;" d="M510.6,31.5h0.8v0.6c0,0.2,0,0.3,0,0.3h0c0.2-0.4,0.7-1,1.6-1c1,0,1.5,0.5,1.5,1.6v2.7h-0.8v-2.5
					c0-0.6-0.1-1.1-0.8-1.1c-0.6,0-1.2,0.4-1.3,1c0,0.2-0.1,0.4-0.1,0.6v2h-0.8V31.5z"/>
				<path style="fill:#FFFFFF;" d="M515.7,29.8h0.8v0.8h-0.8V29.8z M515.7,31.5h0.8v4.3h-0.8V31.5z"/>
				<path style="fill:#FFFFFF;" d="M519.7,31.4c1.1,0,1.6,0.6,1.6,0.6l-0.4,0.6c0,0-0.5-0.5-1.2-0.5c-0.9,0-1.5,0.6-1.5,1.5
					c0,0.9,0.6,1.5,1.5,1.5c0.8,0,1.3-0.6,1.3-0.6l0.3,0.6c0,0-0.6,0.7-1.7,0.7c-1.3,0-2.3-1-2.3-2.2
					C517.5,32.4,518.4,31.4,519.7,31.4z"/>
				<path style="fill:#FFFFFF;" d="M524.6,33.1h0.2V33c0-0.7-0.4-0.9-0.9-0.9c-0.7,0-1.2,0.4-1.2,0.4l-0.3-0.6c0,0,0.6-0.5,1.6-0.5
					c1.1,0,1.7,0.6,1.7,1.7v2.7h-0.8v-0.4c0-0.2,0-0.3,0-0.3h0c0,0-0.3,0.8-1.4,0.8c-0.7,0-1.4-0.4-1.4-1.3
					C522,33.2,523.9,33.1,524.6,33.1z M523.6,35.2c0.7,0,1.1-0.7,1.1-1.4v-0.1h-0.2c-0.6,0-1.7,0-1.7,0.8
					C522.8,34.9,523.1,35.2,523.6,35.2z"/>
				<path style="fill:#FFFFFF;" d="M526.7,29.8h0.8v4.6c0,0.5,0.2,0.6,0.5,0.6c0.1,0,0.1,0,0.1,0v0.7c0,0-0.1,0-0.3,0
					c-0.5,0-1.1-0.1-1.1-1.2V29.8z"/>
				<path style="fill:#FFFFFF;" d="M532.6,30.6h-2v-0.7h4.9v0.7h-2v5.2h-0.8V30.6z"/>
				<path style="fill:#FFFFFF;" d="M535.4,31.5h0.8v0.7c0,0.2,0,0.3,0,0.3h0c0.2-0.6,0.7-1.1,1.3-1.1c0.1,0,0.2,0,0.2,0v0.8
					c0,0-0.1,0-0.2,0c-0.5,0-1,0.4-1.2,1c-0.1,0.2-0.1,0.5-0.1,0.8v1.7h-0.8V31.5z"/>
				<path style="fill:#FFFFFF;" d="M538.5,29.8h0.8v0.8h-0.8V29.8z M538.5,31.5h0.8v4.3h-0.8V31.5z"/>
				<path style="fill:#FFFFFF;" d="M542.8,33.1h0.2V33c0-0.7-0.4-0.9-0.9-0.9c-0.7,0-1.2,0.4-1.2,0.4l-0.3-0.6c0,0,0.6-0.5,1.6-0.5
					c1.1,0,1.7,0.6,1.7,1.7v2.7h-0.8v-0.4c0-0.2,0-0.3,0-0.3h0c0,0-0.3,0.8-1.4,0.8c-0.7,0-1.4-0.4-1.4-1.3
					C540.3,33.2,542.1,33.1,542.8,33.1z M541.9,35.2c0.7,0,1.1-0.7,1.1-1.4v-0.1h-0.2c-0.6,0-1.7,0-1.7,0.8
					C541.1,34.9,541.4,35.2,541.9,35.2z"/>
				<path style="fill:#FFFFFF;" d="M545,29.8h0.8v4.6c0,0.5,0.2,0.6,0.5,0.6c0.1,0,0.1,0,0.1,0v0.7c0,0-0.1,0-0.3,0
					c-0.5,0-1.1-0.1-1.1-1.2V29.8z"/>
				<path style="fill:#FFFFFF;" d="M547.3,34.7c0,0,0.5,0.5,1.2,0.5c0.4,0,0.7-0.2,0.7-0.5c0-0.8-2.2-0.6-2.2-2
					c0-0.8,0.7-1.2,1.5-1.2c0.9,0,1.4,0.5,1.4,0.5l-0.3,0.6c0,0-0.4-0.4-1.1-0.4c-0.4,0-0.7,0.2-0.7,0.5c0,0.8,2.2,0.6,2.2,2
					c0,0.7-0.6,1.2-1.5,1.2c-1,0-1.6-0.6-1.6-0.6L547.3,34.7z"/>
			</g>
			<path id="Rectangle-4-Copy-8" style="fill:none;stroke:#FFFFFF;stroke-width:4;" d="M18.2,11.7v178.5h553.1V11.7H18.2z"/>
		</g>
	</g>
</g>
<g>
</g>
<g>
</g>
<g>
</g>
<g>
</g>
<g>
</g>
<g>
</g>
<g>
</g>
<g>
</g>
<g>
</g>
<g>
</g>
<g>
</g>
<g>
</g>
<g>
</g>
<g>
</g>
<g>
</g>
</svg>
